<svg xmlns="http://www.w3.org/2000/svg" width="24" height="24" viewBox="0 0 24 24" fill="none">
  <rect x="0.5" y="0.5" width="23" height="23" rx="4.5" fill="white"/>
  <rect x="0.5" y="0.5" width="23" height="23" rx="4.5" stroke="#614AD3"/>
  <path d="M9.36869 18C9.27661 17.9967 9.18613 17.9735 9.10281 17.9318C9.01948 17.8901 8.94506 17.8308 8.88412 17.7575L4.31268 12.9073C4.22551 12.8474 4.15233 12.7672 4.09865 12.6728C4.04497 12.5785 4.0122 12.4724 4.00281 12.3626C3.99342 12.2529 4.00765 12.1423 4.04444 12.0392C4.08123 11.9362 4.1396 11.8433 4.21517 11.7677C4.29073 11.692 4.3815 11.6356 4.48061 11.6027C4.57974 11.5697 4.68462 11.5611 4.78735 11.5774C4.89009 11.5937 4.98797 11.6346 5.07363 11.697C5.15929 11.7593 5.23048 11.8415 5.28182 11.9373L9.36869 16.2442L18.9413 6.11708C19.0702 6.02843 19.2233 5.98825 19.3763 6.00298C19.5292 6.01771 19.6732 6.0865 19.7849 6.19833C19.8966 6.31015 19.9697 6.45853 19.9924 6.61969C20.0152 6.78085 19.9863 6.94545 19.9104 7.08711L9.85326 17.7575C9.7923 17.8308 9.71788 17.8901 9.63456 17.9318C9.55123 17.9735 9.46077 17.9967 9.36869 18Z" fill="#614AD3"/>
</svg>