<svg xmlns="http://www.w3.org/2000/svg" width="32" height="32" viewBox="0 0 32 32" fill="none">
<path opacity="0.4" d="M16 32C24.8365 32 32 24.8366 32 16C32 7.16344 24.8365 0 16 0C7.16344 0 0 7.16344 0 16C0 24.8366 7.16344 32 16 32Z" fill="#5D5A88"/>
<path d="M16 5C12.136 5 9 8.1402 9 12.0093C9 15.8037 11.968 18.8878 15.9067 19C15.9627 19 16.0373 19 16.0747 19C16.112 19 16.168 19 16.2053 19C16.224 19 16.2427 19 16.2427 19C20.0133 18.8692 22.9813 15.8037 23 12.0093C23 8.1402 19.864 5 16 5Z" fill="white"/>
<path d="M26 25.8561C23.3746 28.4206 19.8643 30 16 30C12.1357 30 8.62537 28.4206 6 25.8561C6.35398 24.4332 7.31268 23.1353 8.71386 22.1345C12.7404 19.2885 19.2891 19.2885 23.2861 22.1345C24.7021 23.1353 25.646 24.4332 26 25.8561Z" fill="white"/>
</svg>