<svg width="830" height="548" viewBox="0 0 830 548" fill="none" xmlns="http://www.w3.org/2000/svg">
<g clip-path="url(#clip0_30_7379)">
<mask id="mask0_30_7379" style="mask-type:luminance" maskUnits="userSpaceOnUse" x="0" y="0" width="830" height="548">
<path d="M830 0H0V547.569H830V0Z" fill="white"/>
</mask>
<g mask="url(#mask0_30_7379)">
<path d="M830 0H0V547.569H830V0Z" fill="#EDEFF5"/>
<path d="M48.6357 70.0543V46.3301H53.5812V70.0543H48.6357ZM56.4875 70.0543L64.9256 46.3301H70.044L78.3786 70.0543H73.3294L71.3581 64.3826H62.9198L60.9831 70.0543H56.4875ZM67.0006 51.8981L64.0265 60.8897H70.2169L67.139 51.8981H67.0006Z" fill="#E4572E"/>
<path d="M51.8171 92.2799C49.0851 92.2799 47.5288 90.9311 47.5288 88.0434V80.4524H48.9121V87.9742C48.9121 90.4297 49.9496 91.1905 51.869 91.1905C53.7884 91.1905 54.7221 90.447 54.7221 87.957V80.4524H56.0017V88.0261C56.0017 90.983 54.5838 92.2799 51.8171 92.2799ZM57.996 92.0724L61.8175 86.1413L58.2035 80.4697H59.7252L62.6821 85.1211H62.7339L65.5179 80.4697H66.9358L63.4602 86.1586L67.1433 92.0724H65.6217L62.5437 87.1615H62.4919L59.3967 92.0724H57.996ZM85.2886 94.009H83.9745V78.8961H85.2886V94.009ZM75.0692 89.0463C77.2826 89.1155 80.2049 88.9426 82.1934 88.5622L82.349 89.6515C80.7236 89.9628 78.199 90.153 75.5707 90.2049H73.7551V80.4005H80.9657V81.5072H75.0692V89.0463ZM96.8435 89.4786L96.0481 90.4642C94.6302 89.5651 92.7799 87.663 92.2439 85.8647C91.7252 87.6976 90.2554 89.5651 88.4397 90.8274L87.5752 89.8417C89.8058 88.5276 91.5522 85.8647 91.5522 83.1499V81.5936H88.0593V80.4869H96.4112V81.5936H92.9183V83.1153C92.9183 85.9338 94.7685 88.3028 96.8435 89.4786ZM101.962 86.1413H99.5064V94.009H98.1922V78.8961H99.5064V85.0347H101.962V86.1413ZM115.194 89.9282H113.88V78.8961H115.194V89.9282ZM115.574 93.5076H105.338V88.8388H106.652V92.4182H115.574V93.5076ZM107.24 79.899C109.54 79.899 111.321 81.4207 111.321 83.6686C111.321 85.9165 109.557 87.4209 107.257 87.4209C104.957 87.4209 103.176 85.9338 103.176 83.6859C103.176 81.438 104.957 79.899 107.24 79.899ZM107.24 81.0403C105.649 81.0403 104.439 82.1297 104.439 83.6686C104.439 85.1903 105.666 86.2624 107.257 86.2624C108.917 86.2624 110.076 85.1903 110.076 83.6859C110.076 82.1297 108.917 81.0403 107.24 81.0403ZM133.384 83.0115H130.288V81.9049H133.384V78.8961H134.698V86.6947H133.384V83.0115ZM131.118 85.2422L130.375 86.2624C128.922 85.6745 127.453 84.4986 126.726 82.9078C126.277 84.464 124.842 85.8301 123.043 86.6774L122.231 85.6917C124.219 84.9136 126.052 83.1326 126.052 80.7117V79.4149H127.383V80.6599C127.383 83.1153 129.51 84.7061 131.118 85.2422ZM135.268 93.9053H124.945V90.1703H133.401V88.614H124.859V87.5247H134.715V91.1732H126.259V92.8159H135.268V93.9053ZM147.186 93.2482H145.907V88.0088H143.33V86.9195H145.907V84.1528H143.676V83.0461H145.907V79.2592H147.186V93.2482ZM150.057 94.009H148.76V78.8961H150.057V94.009ZM143.503 80.7809C143.4 85.3978 141.567 88.5449 138.074 90.7755L137.209 89.7899C140.356 88.078 141.982 85.0347 142.189 81.8876H137.78V80.7809H143.503Z" fill="#9E94D3"/>
<path d="M727.582 48.7804L724.613 53.5302V57.3903H721.945V53.4517L718.97 48.7804C718.446 47.9692 718.907 47.171 719.495 46.9224C720.319 46.5822 721.08 46.9616 721.535 47.7075L723.368 50.7431L725.132 47.7075C725.513 47.0663 726.1 46.6084 726.982 46.8831C727.622 47.0794 728.129 47.8907 727.582 48.7804ZM731.536 49.5263V50.9263H735.109C735.864 50.9263 736.164 51.5544 736.164 52.0778C736.164 52.6012 735.876 53.19 735.109 53.19H731.536V54.721C731.536 55.035 731.611 55.1004 731.916 55.1004H735.357C736.13 55.1004 736.418 55.6893 736.418 56.2257C736.418 56.7622 736.112 57.3903 735.357 57.3903H730.896C729.322 57.3903 728.85 56.8276 728.85 55.3228V48.9244C728.85 47.4196 729.322 46.857 730.896 46.857H735.225C735.985 46.857 736.285 47.4851 736.285 48.0215C736.285 48.558 735.997 49.1468 735.225 49.1468H731.916C731.611 49.1468 731.536 49.2123 731.536 49.5263ZM737.622 53.648V50.7824C737.622 47.7729 740.043 46.7915 742.003 46.7915C743.928 46.7915 746.389 47.7729 746.389 50.7824V53.648C746.389 56.6575 743.928 57.6389 742.003 57.6389C740.078 57.6389 737.622 56.6575 737.622 53.648ZM743.721 53.7265V50.7039C743.721 49.5524 742.827 49.029 742.003 49.029C741.179 49.029 740.291 49.5524 740.291 50.7039V53.7265C740.291 54.7733 741.259 55.4013 742.003 55.4013C742.752 55.4013 743.721 54.7733 743.721 53.7265ZM756.395 53.19V53.8966C756.395 56.5529 754.522 57.6127 752.286 57.6127C750.026 57.6127 747.75 56.5005 747.75 53.6349V50.7824C747.75 47.8907 750.026 46.8046 752.326 46.8046C753.531 46.8046 754.591 47.0794 755.099 47.4458C755.635 47.8252 755.9 48.4533 755.583 49.0029C755.323 49.4609 754.839 49.644 754.395 49.5655C754.096 49.5132 753.871 49.3693 753.675 49.2908C753.358 49.173 752.902 49.1206 752.326 49.1206C751.41 49.1206 750.418 49.6964 750.418 50.9002V53.5171C750.418 54.721 751.346 55.2967 752.286 55.2967C753.179 55.2967 754.003 54.8649 754.003 53.9359V53.7789C754.003 53.5171 753.951 53.4779 753.698 53.4779H753.271C752.511 53.4779 752.222 52.9022 752.222 52.3788C752.222 51.8553 752.522 51.2404 753.271 51.2404H754.459C756.003 51.2404 756.395 51.7245 756.395 53.19ZM757.658 57.3903V48.1131C757.658 47.2102 758.286 46.8046 759.018 46.8046C759.75 46.8046 760.378 47.2102 760.378 48.1131V57.3903H757.658ZM770.217 48.7804L767.243 53.5302V57.3903H764.574V53.4517L761.606 48.7804C761.081 47.9692 761.537 47.171 762.13 46.9224C762.955 46.5822 763.71 46.9616 764.171 47.7075L766.004 50.7431L767.768 47.7075C768.148 47.0663 768.736 46.6084 769.612 46.8831C770.252 47.0794 770.765 47.8907 770.217 48.7804ZM769.998 57.3903L773.364 47.8907C773.624 47.1579 774.344 46.8046 775.047 46.8046C775.716 46.8046 776.413 47.1841 776.661 47.8907L780.073 57.3903H777.197L776.684 55.7678H773.324L772.828 57.3903H769.998ZM775.013 50.2983L774.004 53.5564H776.004L775.013 50.2983ZM783.826 54.3284H781.157V47.4065C781.157 46.556 781.797 46.1111 782.488 46.1111C783.169 46.1111 783.826 46.5691 783.826 47.4065V54.3284ZM781.088 56.265C781.088 55.4537 781.612 54.9434 782.488 54.9434C783.365 54.9434 783.889 55.4668 783.889 56.265C783.889 57.0631 783.365 57.5866 782.488 57.5866C781.612 57.5866 781.088 57.0762 781.088 56.265Z" fill="#614AD3"/>
<path d="M111.819 150.438H51.8748C49.3281 150.438 47.2637 152.502 47.2637 155.049V172.34C47.2637 174.887 49.3281 176.951 51.8748 176.951H111.819C114.366 176.951 116.43 174.887 116.43 172.34V155.049C116.43 152.502 114.366 150.438 111.819 150.438Z" fill="#614AD3"/>
<path d="M84.3881 162.724C84.3881 163.323 83.7334 163.757 82.3224 163.849V164.126H85.5132V164.974H78.0894V164.126H81.2434V163.84C79.86 163.748 79.2145 163.314 79.2145 162.724C79.2145 162.032 80.0352 161.571 81.8059 161.571C83.5766 161.571 84.3881 162.032 84.3881 162.724ZM84.5634 167.547H79.0393V165.315H84.5634V167.547ZM85.0521 161.377H78.5505V160.566H85.0521V161.377ZM80.358 160.261V159.459H83.2446V160.261H80.358ZM83.4844 166.782V166.108H80.1182V166.782H83.4844ZM83.2907 162.724C83.2907 162.475 82.8388 162.318 81.8059 162.318C80.773 162.318 80.3211 162.475 80.3211 162.724C80.3211 162.964 80.773 163.12 81.8059 163.12C82.8388 163.12 83.2907 162.964 83.2907 162.724Z" fill="white"/>
<path d="M151.014 163.406H116.431V163.983H151.014V163.406Z" fill="#614AD3"/>
<path d="M215.569 150.438H155.625C153.078 150.438 151.014 152.502 151.014 155.049V172.34C151.014 174.887 153.078 176.951 155.625 176.951H215.569C218.116 176.951 220.18 174.887 220.18 172.34V155.049C220.18 152.502 218.116 150.438 215.569 150.438Z" fill="#614AD3"/>
<path d="M171.593 167.529H165.94V165.324H170.265V164.753H165.894V163.904H171.335V166.099H167.019V166.662H171.593V167.529ZM171.335 163.489H170.265V159.376H171.335V163.489ZM164.787 161.562C164.787 160.464 165.709 159.653 166.973 159.653C168.227 159.653 169.14 160.446 169.14 161.562C169.14 162.659 168.227 163.397 166.973 163.397C165.755 163.397 164.787 162.687 164.787 161.562ZM165.857 161.553C165.857 162.106 166.336 162.502 166.973 162.502C167.646 162.502 168.07 162.06 168.07 161.553C168.07 160.99 167.664 160.538 166.973 160.538C166.364 160.538 165.857 160.999 165.857 161.553ZM179.324 167.593H178.245V159.376H179.324V167.593ZM176.797 160.234C176.732 162.715 175.635 164.743 173.126 166.108L172.462 165.297C174.261 164.476 175.487 162.761 175.635 161.128H172.96V160.234H176.797ZM186.821 165.472C185.576 165.675 184.395 165.739 182.929 165.739C182.874 165.444 182.846 165.094 182.791 164.799H183.584C183.519 163.784 183.445 162.798 183.39 161.783C183.741 161.746 184.082 161.7 184.432 161.654C184.46 162.705 184.506 163.738 184.543 164.78L185.124 164.762C185.17 163.738 185.207 162.715 185.262 161.672L186.267 161.783C186.194 162.77 186.12 163.738 186.037 164.707C186.304 164.688 186.535 164.66 186.747 164.624L186.821 165.472ZM188.407 167.215H187.383V163.434H186.507V162.558H187.383V159.533H188.407V167.215ZM189.919 167.593H188.896V159.376H189.919V167.593ZM186.756 161.211H182.966V160.363H186.756V161.211ZM197.695 167.593H196.626V159.376H197.695V167.593ZM191.138 162.881C191.138 161.147 191.922 159.939 193.26 159.939C194.606 159.939 195.39 161.147 195.39 162.881C195.39 164.596 194.606 165.804 193.26 165.804C191.922 165.804 191.138 164.605 191.138 162.881ZM194.357 162.881C194.357 161.58 193.896 160.806 193.26 160.806C192.642 160.806 192.19 161.58 192.19 162.881C192.19 164.172 192.642 164.937 193.26 164.937C193.896 164.937 194.357 164.172 194.357 162.881ZM204.024 164.799L203.425 165.638C202.696 165.269 201.691 164.227 201.442 163.434C201.248 164.264 200.418 165.361 199.459 165.832L198.814 165.029C200.197 164.292 200.87 163.019 200.87 161.294V161.073H199.229V160.215H203.591V161.073H202.005V161.285C202.005 163.019 202.788 164.162 204.024 164.799ZM205.684 167.593H204.605V159.376H205.684V167.593Z" fill="white"/>
<path d="M319.32 163.406H220.181V163.983H319.32V163.406Z" fill="#614AD3"/>
<path d="M185.885 176.951H185.309V195.396H185.885V176.951Z" fill="#614AD3"/>
<path d="M215.569 195.396H155.625C153.078 195.396 151.014 197.46 151.014 200.007V217.299C151.014 219.845 153.078 221.91 155.625 221.91H215.569C218.116 221.91 220.18 219.845 220.18 217.299V200.007C220.18 197.46 218.116 195.396 215.569 195.396Z" fill="#9E94D3"/>
<path d="M176.218 210.984C176.218 211.934 175.176 212.551 173.368 212.551C171.552 212.551 170.5 211.934 170.5 210.984C170.5 210.034 171.552 209.416 173.368 209.416C175.176 209.416 176.218 210.034 176.218 210.984ZM177.159 208.789H169.735V207.931H172.548V206.502H173.627V207.931H177.159V208.789ZM176.2 204.63C176.2 206.16 176.089 206.852 175.941 207.525C175.6 207.479 175.25 207.424 174.899 207.387C175.038 206.834 175.121 206.345 175.121 205.478H170.583V204.63H176.2ZM175.121 210.993C175.121 210.513 174.438 210.283 173.368 210.283C172.289 210.283 171.616 210.513 171.616 210.993C171.616 211.454 172.289 211.694 173.368 211.694C174.438 211.694 175.121 211.454 175.121 210.993ZM185.313 207.562H184.142V210.283H183.054V204.334H184.142V206.677H185.313V207.562ZM181.846 204.962C181.837 207.332 180.14 208.853 178.139 209.361L177.604 208.503C178.978 208.263 180.417 207.295 180.684 205.856H178.019V204.962H181.846ZM184.345 212.312H178.858V209.665H179.946V211.454H184.345V212.312ZM192.74 212.487H187.086V210.283H191.412V209.711H187.04V208.863H192.481V211.057H188.165V211.62H192.74V212.487ZM192.481 208.448H191.412V204.334H192.481V208.448ZM185.934 206.52C185.934 205.423 186.856 204.611 188.119 204.611C189.374 204.611 190.286 205.404 190.286 206.52C190.286 207.618 189.374 208.355 188.119 208.355C186.902 208.355 185.934 207.645 185.934 206.52ZM187.003 206.511C187.003 207.064 187.483 207.461 188.119 207.461C188.793 207.461 189.217 207.018 189.217 206.511C189.217 205.948 188.811 205.496 188.119 205.496C187.511 205.496 187.003 205.958 187.003 206.511ZM200.47 212.551H199.391V204.334H200.47V212.551ZM197.943 205.192C197.878 207.673 196.781 209.702 194.272 211.067L193.608 210.255C195.407 209.434 196.633 207.719 196.781 206.087H194.106V205.192H197.943Z" fill="white"/>
<path d="M185.885 221.91H185.309V231.132H185.885V221.91Z" fill="#9E94D3"/>
<path d="M195.396 231.132H175.798C168.477 231.132 162.542 237.067 162.542 244.389C162.542 251.711 168.477 257.646 175.798 257.646H195.396C202.717 257.646 208.653 251.711 208.653 244.389C208.653 237.067 202.717 231.132 195.396 231.132Z" fill="#5641BA" fill-opacity="0.9"/>
<path d="M177.906 241.472V240.596H182.231V241.472H180.663C180.755 242.644 181.585 243.427 182.498 243.723L181.908 244.58C181.272 244.331 180.479 243.713 180.119 242.957C179.879 243.75 179.012 244.534 178.219 244.802L177.583 243.962C178.727 243.547 179.501 242.662 179.557 241.472H177.906ZM178.837 245.272H184.241V248.297H183.153V246.13H178.837V245.272ZM185.403 242.902H184.232V244.857H183.144V240.071H184.232V242.016H185.403V242.902ZM192.581 244.866H191.502V242.634H190.1V241.777H191.502V240.071H192.581V244.866ZM190.699 243.713L190.081 244.553C189.464 244.304 188.615 243.649 188.255 242.883C188.006 243.723 187.112 244.497 186.346 244.755L185.701 243.898C186.891 243.464 187.684 242.505 187.684 241.26V240.449H188.8V241.205C188.8 242.478 189.74 243.4 190.699 243.713ZM192.636 246.628C192.636 247.624 191.603 248.278 189.805 248.278C188.034 248.278 187.01 247.624 187.01 246.628C187.01 245.604 188.034 244.958 189.805 244.958C191.603 244.958 192.636 245.604 192.636 246.628ZM189.805 245.825C188.744 245.825 188.117 246.13 188.117 246.628C188.117 247.116 188.744 247.411 189.805 247.411C190.911 247.411 191.52 247.116 191.52 246.628C191.52 246.13 190.911 245.825 189.805 245.825Z" fill="white"/>
<path d="M250.729 231.132H231.132C223.81 231.132 217.875 237.067 217.875 244.389C217.875 251.711 223.81 257.646 231.132 257.646H250.729C258.051 257.646 263.986 251.711 263.986 244.389C263.986 237.067 258.051 231.132 250.729 231.132Z" fill="#5641BA" fill-opacity="0.9"/>
<path d="M227.383 241.26H225.152V240.43H227.383V241.26ZM228.333 242.496H224.036V241.666H228.333V242.496ZM230.888 248.075H225.271V245.936H226.35V247.218H230.888V248.075ZM230.713 246.185H229.634V244.802H228.555V243.972H229.634V243.095H228.555V242.265H229.634V240.071H230.713V246.185ZM228.13 244.147C228.13 244.995 227.31 245.604 226.212 245.604C225.124 245.604 224.294 244.995 224.294 244.147C224.294 243.317 225.115 242.699 226.212 242.699C227.31 242.699 228.13 243.317 228.13 244.147ZM227.042 244.156C227.042 243.806 226.673 243.547 226.221 243.547C225.76 243.547 225.391 243.806 225.391 244.156C225.391 244.506 225.769 244.765 226.221 244.765C226.673 244.765 227.042 244.506 227.042 244.156ZM238.886 248.288H237.862V244.165H237.198V247.909H236.193V240.218H237.198V243.298H237.862V240.071H238.886V248.288ZM235.935 245.604L235.335 246.388C234.8 246.056 234.109 245.207 233.897 244.479C233.712 245.235 233.002 246.194 232.347 246.572L231.692 245.853C232.854 245.078 233.389 243.898 233.389 242.275V241.915H232.006V241.057H235.713V241.915H234.431V242.256C234.431 243.861 234.957 245.032 235.935 245.604ZM247.093 242.21C247.093 243.197 246.198 243.916 244.944 243.916C243.662 243.916 242.814 243.197 242.814 242.21C242.814 241.196 243.662 240.458 244.944 240.458C246.235 240.458 247.093 241.196 247.093 242.21ZM249.14 240.071V248.288H248.07V240.071H249.14ZM245.516 248.048H244.418V245.327C243.635 245.364 242.998 245.383 242.39 245.383L242.233 244.497C244.326 244.497 246.475 244.368 247.637 244.248L247.729 245.078C247.121 245.161 246.3 245.226 245.516 245.272V248.048ZM246.014 242.201C246.014 241.703 245.571 241.334 244.944 241.334C244.335 241.334 243.893 241.703 243.893 242.201C243.893 242.69 244.326 243.031 244.944 243.031C245.59 243.031 246.014 242.69 246.014 242.201ZM255.45 245.917L254.887 246.757C254.104 246.379 253.144 245.447 252.895 244.654C252.693 245.484 251.853 246.462 250.894 246.932L250.249 246.139C251.567 245.512 252.25 244.451 252.314 242.874H250.673V242.026H255.053V242.874H253.44C253.523 244.46 254.371 245.447 255.45 245.917ZM257.073 248.288H255.994V240.071H257.073V248.288ZM251.623 241.426V240.569H254.094V241.426H251.623Z" fill="white"/>
<path d="M306.063 231.132H286.465C279.144 231.132 273.208 237.067 273.208 244.389C273.208 251.711 279.144 257.646 286.465 257.646H306.063C313.384 257.646 319.32 251.711 319.32 244.389C319.32 237.067 313.384 231.132 306.063 231.132Z" fill="#5641BA" fill-opacity="0.9"/>
<path d="M284.045 242.21C284.045 243.197 283.15 243.916 281.896 243.916C280.614 243.916 279.766 243.197 279.766 242.21C279.766 241.196 280.614 240.458 281.896 240.458C283.187 240.458 284.045 241.196 284.045 242.21ZM286.092 240.071V248.288H285.022V240.071H286.092ZM282.468 248.048H281.37V245.327C280.586 245.364 279.95 245.383 279.341 245.383L279.185 244.497C281.278 244.497 283.427 244.368 284.589 244.248L284.681 245.078C284.072 245.161 283.252 245.226 282.468 245.272V248.048ZM282.966 242.201C282.966 241.703 282.523 241.334 281.896 241.334C281.287 241.334 280.845 241.703 280.845 242.201C280.845 242.69 281.278 243.031 281.896 243.031C282.541 243.031 282.966 242.69 282.966 242.201ZM292.402 245.917L291.84 246.757C291.056 246.379 290.097 245.447 289.848 244.654C289.645 245.484 288.806 246.462 287.847 246.932L287.201 246.139C288.52 245.512 289.202 244.451 289.267 242.874H287.625V242.026H292.006V242.874H290.392C290.475 244.46 291.323 245.447 292.402 245.917ZM294.025 248.288H292.946V240.071H294.025V248.288ZM288.575 241.426V240.569H291.047V241.426H288.575ZM304.428 244.617H303.349V242.948H301.836V242.063H303.349V240.071H304.428V244.617ZM304.428 248.186H299.023V245.041H304.428V248.186ZM303.349 247.347V245.881H300.112V247.347H303.349ZM301.836 240.559C301.744 242.846 300.499 244.138 298.23 244.912L297.658 244.045C299.152 243.667 300.342 242.819 300.637 241.454H298.018V240.559H301.836ZM312.6 244.894H311.576V242.911H310.912V244.811H309.907V240.218H310.912V242.044H311.576V240.071H312.6V244.894ZM306.892 245.281H312.6V248.297H311.53V246.139H306.892V245.281ZM309.741 243.713L309.197 244.516C308.653 244.285 307.915 243.621 307.712 243.095C307.482 243.723 306.827 244.46 306.126 244.783L305.527 244.008C306.523 243.464 307.159 242.561 307.159 241.399V240.587H308.192V241.371C308.192 242.514 308.893 243.317 309.741 243.713Z" fill="white"/>
<path d="M185.885 257.646H185.309V266.868H185.885V257.646Z" fill="#9E94D3"/>
<path d="M195.396 266.868H175.798C168.477 266.868 162.542 272.803 162.542 280.125C162.542 287.447 168.477 293.382 175.798 293.382H195.396C202.717 293.382 208.653 287.447 208.653 280.125C208.653 272.803 202.717 266.868 195.396 266.868Z" fill="#5641BA" fill-opacity="0.9"/>
<path d="M182.038 284.033H180.949V281.109H177.805V280.261H185.229V281.109H182.038V284.033ZM184.924 278.702L184.454 279.579C183.237 279.394 181.927 278.61 181.521 277.706C181.162 278.61 179.852 279.385 178.607 279.588L178.146 278.702C179.566 278.546 180.949 277.633 180.949 276.406V275.982H182.093V276.406C182.093 277.633 183.605 278.583 184.924 278.702ZM192.636 282.382C192.636 283.378 191.576 284.005 189.759 284.005C187.942 284.005 186.882 283.378 186.882 282.382C186.882 281.358 187.942 280.731 189.759 280.731C191.576 280.731 192.636 281.358 192.636 282.382ZM186.07 277.273V276.388H190.395V277.273H188.837C188.92 278.417 189.75 279.182 190.644 279.477C190.46 279.763 190.257 280.04 190.063 280.326C189.436 280.086 188.634 279.468 188.283 278.721C188.034 279.514 187.168 280.289 186.374 280.565C186.153 280.279 185.95 280.003 185.729 279.726C186.882 279.311 187.638 278.444 187.702 277.273H186.07ZM190.266 278.638V277.771H191.502V275.807H192.581V280.694H191.502V278.638H190.266ZM189.759 281.598C188.643 281.598 187.988 281.884 187.988 282.382C187.988 282.862 188.643 283.148 189.759 283.148C190.893 283.148 191.539 282.862 191.539 282.382C191.539 281.884 190.893 281.598 189.759 281.598Z" fill="white"/>
<path d="M185.885 293.382H185.309V302.604H185.885V293.382Z" fill="#9E94D3"/>
<path d="M195.396 302.604H175.798C168.477 302.604 162.542 308.54 162.542 315.861C162.542 323.183 168.477 329.118 175.798 329.118H195.396C202.717 329.118 208.653 323.183 208.653 315.861C208.653 308.54 202.717 302.604 195.396 302.604Z" fill="#5641BA" fill-opacity="0.9"/>
<path d="M185.403 314.383H184.232V316.338H183.144V311.543H184.232V313.498H185.403V314.383ZM178.828 316.753H184.232V319.769H183.153V317.611H178.828V316.753ZM182.637 315.047L182.019 315.877C181.382 315.647 180.534 314.983 180.174 314.227C179.925 315.066 179.04 315.877 178.275 316.145L177.647 315.287C178.846 314.854 179.612 313.839 179.612 312.594V311.875H180.718V312.548C180.718 313.821 181.668 314.743 182.637 315.047ZM189.832 317.085L189.224 317.86C188.689 317.519 187.997 316.68 187.794 315.951C187.601 316.717 186.9 317.666 186.236 318.045L185.581 317.316C186.752 316.541 187.278 315.37 187.278 313.747V313.35H185.894V312.493H189.602V313.35H188.32V313.729C188.32 315.333 188.855 316.504 189.832 317.085ZM191.133 319.382H190.127V315.259H189.058V314.374H190.127V311.7H191.133V319.382ZM192.783 319.76H191.76V311.543H192.783V319.76Z" fill="white"/>
<path d="M185.885 329.118H185.309V338.34H185.885V329.118Z" fill="#9E94D3"/>
<path d="M195.396 338.34H175.798C168.477 338.34 162.542 344.276 162.542 351.597C162.542 358.919 168.477 364.854 175.798 364.854H195.396C202.717 364.854 208.653 358.919 208.653 351.597C208.653 344.276 202.717 338.34 195.396 338.34Z" fill="#5641BA" fill-opacity="0.9"/>
<path d="M184.288 353.928C184.288 354.878 183.246 355.496 181.438 355.496C179.621 355.496 178.57 354.878 178.57 353.928C178.57 352.978 179.621 352.36 181.438 352.36C183.246 352.36 184.288 352.978 184.288 353.928ZM185.229 351.733H177.805V350.876H180.617V349.446H181.696V350.876H185.229V351.733ZM184.269 347.574C184.269 349.105 184.159 349.797 184.011 350.47C183.67 350.424 183.32 350.368 182.969 350.331C183.107 349.778 183.19 349.289 183.19 348.422H178.653V347.574H184.269ZM183.19 353.937C183.19 353.458 182.508 353.227 181.438 353.227C180.359 353.227 179.686 353.458 179.686 353.937C179.686 354.398 180.359 354.638 181.438 354.638C182.508 354.638 183.19 354.398 183.19 353.937ZM192.406 349.474C192.406 350.562 191.262 351.3 189.482 351.3C187.712 351.3 186.568 350.562 186.568 349.474C186.568 348.395 187.712 347.657 189.482 347.657C191.262 347.657 192.406 348.395 192.406 349.474ZM188.606 355.487H187.527V352.748H185.784V351.89H193.208V352.748H191.428V355.487H190.349V352.748H188.606V355.487ZM191.281 349.474C191.281 348.93 190.589 348.524 189.482 348.524C188.366 348.524 187.684 348.93 187.684 349.474C187.684 350.018 188.366 350.433 189.482 350.433C190.589 350.433 191.281 350.018 191.281 349.474Z" fill="white"/>
<path d="M250.729 338.34H231.132C223.81 338.34 217.875 344.276 217.875 351.597C217.875 358.919 223.81 364.854 231.132 364.854H250.729C258.051 364.854 263.986 358.919 263.986 351.597C263.986 344.276 258.051 338.34 250.729 338.34Z" fill="#5641BA" fill-opacity="0.9"/>
<path d="M235.891 355.496H234.821V347.279H235.891V355.496ZM233.391 353.467H229.509V347.943H230.579V349.916H232.303V347.924H233.391V353.467ZM232.303 352.619V350.765H230.579V352.619H232.303ZM243.566 353.928C243.566 354.878 242.524 355.496 240.716 355.496C238.899 355.496 237.848 354.878 237.848 353.928C237.848 352.978 238.899 352.36 240.716 352.36C242.524 352.36 243.566 352.978 243.566 353.928ZM244.506 351.733H237.083V350.876H239.895V349.446H240.974V350.876H244.506V351.733ZM243.547 347.574C243.547 349.105 243.437 349.797 243.289 350.47C242.948 350.424 242.597 350.368 242.247 350.331C242.385 349.778 242.468 349.289 242.468 348.422H237.931V347.574H243.547ZM242.468 353.937C242.468 353.458 241.786 353.227 240.716 353.227C239.637 353.227 238.964 353.458 238.964 353.937C238.964 354.398 239.637 354.638 240.716 354.638C241.786 354.638 242.468 354.398 242.468 353.937ZM251.684 349.474C251.684 350.562 250.54 351.3 248.76 351.3C246.99 351.3 245.846 350.562 245.846 349.474C245.846 348.395 246.99 347.657 248.76 347.657C250.54 347.657 251.684 348.395 251.684 349.474ZM247.884 355.487H246.805V352.748H245.062V351.89H252.486V352.748H250.706V355.487H249.627V352.748H247.884V355.487ZM250.559 349.474C250.559 348.93 249.866 348.524 248.76 348.524C247.644 348.524 246.962 348.93 246.962 349.474C246.962 350.018 247.644 350.433 248.76 350.433C249.866 350.433 250.559 350.018 250.559 349.474Z" fill="white"/>
<path d="M353.903 163.406H319.319V163.983H353.903V163.406Z" fill="#614AD3"/>
<path d="M418.458 150.438H358.514C355.967 150.438 353.903 152.502 353.903 155.049V172.34C353.903 174.887 355.967 176.951 358.514 176.951H418.458C421.005 176.951 423.069 174.887 423.069 172.34V155.049C423.069 152.502 421.005 150.438 418.458 150.438Z" fill="#614AD3"/>
<path d="M365.905 165.933C365.905 166.948 364.854 167.584 363.037 167.584C361.221 167.584 360.178 166.948 360.178 165.933C360.178 164.909 361.221 164.282 363.037 164.282C364.854 164.282 365.905 164.909 365.905 165.933ZM359.478 160.833V159.948H363.803V160.833H362.244C362.336 161.986 363.157 162.751 364.061 163.047L363.471 163.895C362.834 163.655 362.051 163.037 361.691 162.281C361.442 163.083 360.575 163.849 359.782 164.126L359.146 163.286C360.289 162.871 361.055 161.995 361.119 160.833H359.478ZM366.966 162.226H365.795V164.181H364.707V159.376H365.795V161.34H366.966V162.226ZM363.037 165.149C361.912 165.149 361.267 165.435 361.267 165.933C361.267 166.431 361.912 166.726 363.037 166.726C364.181 166.726 364.817 166.431 364.817 165.933C364.817 165.435 364.181 165.149 363.037 165.149ZM374.558 163.019L374.051 163.867C372.926 163.609 371.524 162.751 371.054 161.672C370.629 162.779 369.191 163.618 368.066 163.867L367.577 162.991C368.914 162.798 370.5 161.765 370.5 160.298V159.8H371.625V160.298C371.625 161.746 373.313 162.816 374.558 163.019ZM374.77 166.569H367.346V165.721H370.491V163.766H371.579V165.721H374.77V166.569ZM382.123 163.923H381.044V162.253H379.531V161.368H381.044V159.376H382.123V163.923ZM382.123 167.492H376.718V164.347H382.123V167.492ZM381.044 166.652V165.186H377.807V166.652H381.044ZM379.531 159.865C379.439 162.152 378.194 163.443 375.925 164.218L375.353 163.351C376.848 162.973 378.037 162.124 378.332 160.759H375.713V159.865H379.531ZM390.295 164.199H389.272V162.217H388.608V164.116H387.602V159.524H388.608V161.35H389.272V159.376H390.295V164.199ZM384.587 164.587H390.295V167.602H389.226V165.444H384.587V164.587ZM387.436 163.019L386.892 163.821C386.348 163.591 385.61 162.927 385.408 162.401C385.177 163.028 384.522 163.766 383.821 164.089L383.222 163.314C384.218 162.77 384.854 161.866 384.854 160.704V159.893H385.887V160.676C385.887 161.82 386.588 162.622 387.436 163.019ZM397.599 165.472C396.354 165.675 395.173 165.739 393.707 165.739C393.652 165.444 393.624 165.094 393.569 164.799H394.362C394.297 163.784 394.223 162.798 394.168 161.783C394.518 161.746 394.86 161.7 395.21 161.654C395.238 162.705 395.284 163.738 395.321 164.78L395.902 164.762C395.948 163.738 395.985 162.715 396.04 161.672L397.045 161.783C396.972 162.77 396.898 163.738 396.815 164.707C397.082 164.688 397.313 164.66 397.525 164.624L397.599 165.472ZM399.185 167.215H398.161V163.434H397.285V162.558H398.161V159.533H399.185V167.215ZM400.697 167.593H399.674V159.376H400.697V167.593ZM397.534 161.211H393.744V160.363H397.534V161.211ZM408.474 167.593H407.404V159.376H408.474V167.593ZM401.917 162.881C401.917 161.147 402.701 159.939 404.038 159.939C405.385 159.939 406.168 161.147 406.168 162.881C406.168 164.596 405.385 165.804 404.038 165.804C402.701 165.804 401.917 164.605 401.917 162.881ZM405.136 162.881C405.136 161.58 404.674 160.806 404.038 160.806C403.42 160.806 402.968 161.58 402.968 162.881C402.968 164.172 403.42 164.937 404.038 164.937C404.674 164.937 405.136 164.172 405.136 162.881ZM414.803 164.799L414.203 165.638C413.475 165.269 412.47 164.227 412.221 163.434C412.027 164.264 411.197 165.361 410.238 165.832L409.592 165.029C410.976 164.292 411.649 163.019 411.649 161.294V161.073H410.007V160.215H414.369V161.073H412.783V161.285C412.783 163.019 413.567 164.162 414.803 164.799ZM416.463 167.593H415.384V159.376H416.463V167.593Z" fill="white"/>
<path d="M522.208 163.406H423.069V163.983H522.208V163.406Z" fill="#614AD3"/>
<path d="M388.774 176.951H388.198V195.396H388.774V176.951Z" fill="#614AD3"/>
<path d="M418.458 195.396H358.514C355.967 195.396 353.903 197.46 353.903 200.007V217.299C353.903 219.845 355.967 221.91 358.514 221.91H418.458C421.005 221.91 423.069 219.845 423.069 217.299V200.007C423.069 197.46 421.005 195.396 418.458 195.396Z" fill="#9E94D3"/>
<path d="M379.162 210.891C379.162 211.906 378.111 212.542 376.294 212.542C374.477 212.542 373.435 211.906 373.435 210.891C373.435 209.868 374.477 209.241 376.294 209.241C378.111 209.241 379.162 209.868 379.162 210.891ZM372.734 205.792V204.906H377.06V205.792H375.501C375.593 206.944 376.414 207.71 377.318 208.005L376.728 208.853C376.091 208.614 375.307 207.996 374.948 207.239C374.699 208.042 373.832 208.807 373.039 209.084L372.402 208.245C373.546 207.83 374.311 206.954 374.376 205.792H372.734ZM380.223 207.184H379.052V209.139H377.963V204.334H379.052V206.299H380.223V207.184ZM376.294 210.108C375.169 210.108 374.523 210.393 374.523 210.891C374.523 211.389 375.169 211.685 376.294 211.685C377.438 211.685 378.074 211.389 378.074 210.891C378.074 210.393 377.438 210.108 376.294 210.108ZM387.815 207.977L387.308 208.826C386.183 208.567 384.781 207.71 384.311 206.631C383.886 207.737 382.448 208.577 381.323 208.826L380.834 207.95C382.171 207.756 383.757 206.723 383.757 205.257V204.759H384.882V205.257C384.882 206.705 386.57 207.774 387.815 207.977ZM388.027 211.528H380.603V210.679H383.748V208.724H384.836V210.679H388.027V211.528ZM395.435 210.91C395.435 211.906 394.374 212.533 392.558 212.533C390.74 212.533 389.68 211.906 389.68 210.91C389.68 209.886 390.74 209.259 392.558 209.259C394.374 209.259 395.435 209.886 395.435 210.91ZM388.869 205.801V204.915H393.194V205.801H391.635C391.718 206.944 392.548 207.71 393.443 208.005C393.258 208.291 393.055 208.567 392.862 208.853C392.235 208.614 391.432 207.996 391.082 207.249C390.833 208.042 389.966 208.816 389.173 209.093C388.952 208.807 388.749 208.531 388.527 208.254C389.68 207.839 390.436 206.972 390.501 205.801H388.869ZM393.065 207.166V206.299H394.301V204.334H395.38V209.222H394.301V207.166H393.065ZM392.558 210.126C391.442 210.126 390.787 210.412 390.787 210.91C390.787 211.389 391.442 211.675 392.558 211.675C393.692 211.675 394.337 211.389 394.337 210.91C394.337 210.412 393.692 210.126 392.558 210.126ZM403.986 211.528H396.562V210.67H399.716V209.075H397.456V204.897H398.526V206.17H402.021V204.879H403.1V209.075H400.795V210.67H403.986V211.528ZM402.021 208.217V207H398.526V208.217H402.021Z" fill="white"/>
<path d="M388.774 221.91H388.198V231.132H388.774V221.91Z" fill="#9E94D3"/>
<path d="M398.285 231.132H378.688C371.366 231.132 365.431 237.067 365.431 244.389C365.431 251.711 371.366 257.646 378.688 257.646H398.285C405.606 257.646 411.542 251.711 411.542 244.389C411.542 237.067 405.606 231.132 398.285 231.132Z" fill="#5641BA" fill-opacity="0.9"/>
<path d="M385.83 245.493L385.231 246.332C384.502 245.964 383.497 244.921 383.248 244.128C383.054 244.958 382.224 246.056 381.265 246.526L380.62 245.724C382.003 244.986 382.676 243.713 382.676 241.989V241.767H381.035V240.91H385.397V241.767H383.811V241.98C383.811 243.713 384.594 244.857 385.83 245.493ZM387.49 248.288H386.411V240.071H387.49V248.288ZM395.193 244.506H392.906V246.406H396.097V247.255H388.673V246.406H391.827V244.506H389.632V240.67H395.147V241.528H390.711V243.649H395.193V244.506Z" fill="white"/>
<path d="M388.774 257.646H388.198V266.868H388.774V257.646Z" fill="#9E94D3"/>
<path d="M398.285 266.868H378.688C371.366 266.868 365.431 272.803 365.431 280.125C365.431 287.447 371.366 293.382 378.688 293.382H398.285C405.606 293.382 411.542 287.447 411.542 280.125C411.542 272.803 405.606 266.868 398.285 266.868Z" fill="#5641BA" fill-opacity="0.9"/>
<path d="M387.167 276.249C387.167 277.577 387.084 278.813 386.9 279.754H388.117V280.611H384.926V284.024H383.847V280.611H380.693V279.754H385.876C386.024 279.044 386.098 278.121 386.098 277.116H381.606V276.249H387.167ZM395.47 283.913H389.577V281.709H394.105V281.1H389.512V280.252H395.175V282.456H390.646V283.046H395.47V283.913ZM395.147 276.093C395.147 277.135 395.073 277.974 394.907 278.702H396.097V279.56H388.673V278.702H393.883C394.003 278.241 394.077 277.476 394.068 276.941H389.623V276.093H395.147Z" fill="white"/>
<path d="M453.618 266.868H434.021C426.699 266.868 420.764 272.803 420.764 280.125C420.764 287.447 426.699 293.382 434.021 293.382H453.618C460.939 293.382 466.875 287.447 466.875 280.125C466.875 272.803 460.939 266.868 453.618 266.868Z" fill="#5641BA" fill-opacity="0.9"/>
<path d="M436.197 276.637C436.197 279.403 434.998 281.377 432.545 282.65L431.881 281.884C433.025 281.358 433.966 280.51 434.528 279.431L432.25 279.68C432.204 279.366 432.158 279.062 432.103 278.749L434.888 278.546C434.971 278.223 435.035 277.882 435.063 277.531H432.508V276.637H436.197ZM438.411 275.807V278.961H439.563V279.855H438.411V284.024H437.341V275.807H438.411ZM444.177 276.637C444.177 279.403 442.978 281.377 440.525 282.65L439.861 281.884C441.004 281.358 441.945 280.51 442.508 279.431L440.23 279.68C440.184 279.366 440.138 279.062 440.082 278.749L442.867 278.546C442.95 278.223 443.015 277.882 443.043 277.531H440.488V276.637H444.177ZM446.39 275.807V278.961H447.543V279.855H446.39V284.024H445.32V275.807H446.39ZM455.375 283H447.951V282.142H451.114V280.833C449.611 280.658 448.652 279.781 448.652 278.583C448.652 277.255 449.851 276.323 451.668 276.323C453.494 276.323 454.683 277.255 454.683 278.583C454.683 279.791 453.715 280.676 452.193 280.833V282.142H455.375V283ZM453.595 278.592C453.595 277.771 452.839 277.208 451.668 277.208C450.506 277.208 449.749 277.771 449.749 278.592C449.749 279.422 450.506 279.975 451.668 279.975C452.83 279.975 453.595 279.422 453.595 278.592Z" fill="white"/>
<path d="M508.951 266.868H489.354C482.033 266.868 476.097 272.803 476.097 280.125C476.097 287.447 482.033 293.382 489.354 293.382H508.951C516.273 293.382 522.208 287.447 522.208 280.125C522.208 272.803 516.273 266.868 508.951 266.868Z" fill="#5641BA" fill-opacity="0.9"/>
<path d="M494.307 284.024H493.283V275.807H494.307V284.024ZM491.604 279.256H489.981V278.389H491.604V275.954H492.619V283.646H491.604V279.256ZM491.033 280.916L491.162 281.773C490.738 281.912 489.4 282.032 488.423 282.032H487.685V276.526H488.746V281.137C489.548 281.137 490.525 281.063 491.033 280.916ZM502.092 284.024H501.023V275.807H502.092V284.024ZM495.535 279.311C495.535 277.577 496.319 276.369 497.657 276.369C499.003 276.369 499.787 277.577 499.787 279.311C499.787 281.026 499.003 282.235 497.657 282.235C496.319 282.235 495.535 281.036 495.535 279.311ZM498.754 279.311C498.754 278.011 498.293 277.236 497.657 277.236C497.039 277.236 496.587 278.011 496.587 279.311C496.587 280.602 497.039 281.368 497.657 281.368C498.293 281.368 498.754 280.602 498.754 279.311ZM510.072 284.024H509.002V279.597H507.747V278.693H509.002V275.807H510.072V284.024ZM507.398 281.995H503.515V276.471H504.576V278.444H506.319V276.452H507.398V281.995ZM506.319 281.146V279.293H504.576V281.146H506.319Z" fill="white"/>
<path d="M388.774 293.382H388.198V311.826H388.774V293.382Z" fill="#614AD3"/>
<path d="M418.458 311.826H358.514C355.967 311.826 353.903 313.891 353.903 316.438V333.729C353.903 336.276 355.967 338.34 358.514 338.34H418.458C421.005 338.34 423.069 336.276 423.069 333.729V316.438C423.069 313.891 421.005 311.826 418.458 311.826Z" fill="#9E94D3"/>
<path d="M369.885 327.414C369.885 328.364 368.843 328.982 367.035 328.982C365.219 328.982 364.167 328.364 364.167 327.414C364.167 326.464 365.219 325.846 367.035 325.846C368.843 325.846 369.885 326.464 369.885 327.414ZM370.826 325.219H363.402V324.362H366.215V322.932H367.294V324.362H370.826V325.219ZM369.867 321.06C369.867 322.591 369.756 323.283 369.608 323.956C369.267 323.91 368.917 323.854 368.566 323.818C368.705 323.264 368.788 322.775 368.788 321.909H364.25V321.06H369.867ZM368.788 327.423C368.788 326.944 368.105 326.713 367.035 326.713C365.956 326.713 365.283 326.944 365.283 327.423C365.283 327.885 365.956 328.124 367.035 328.124C368.105 328.124 368.788 327.885 368.788 327.423ZM378.981 323.993H377.809V326.713H376.721V320.765H377.809V323.107H378.981V323.993ZM375.513 321.392C375.504 323.762 373.807 325.284 371.806 325.791L371.271 324.933C372.645 324.694 374.084 323.725 374.351 322.287H371.686V321.392H375.513ZM378.012 328.742H372.525V326.095H373.613V327.885H378.012V328.742ZM386.407 328.917H380.753V326.713H385.079V326.142H380.707V325.293H386.148V327.488H381.832V328.051H386.407V328.917ZM386.148 324.878H385.079V320.765H386.148V324.878ZM379.601 322.951C379.601 321.853 380.523 321.042 381.786 321.042C383.041 321.042 383.953 321.835 383.953 322.951C383.953 324.048 383.041 324.786 381.786 324.786C380.569 324.786 379.601 324.076 379.601 322.951ZM380.67 322.941C380.67 323.495 381.15 323.891 381.786 323.891C382.46 323.891 382.884 323.449 382.884 322.941C382.884 322.379 382.478 321.927 381.786 321.927C381.178 321.927 380.67 322.388 380.67 322.941ZM394.137 328.982H393.058V320.765H394.137V328.982ZM391.61 321.623C391.545 324.103 390.448 326.132 387.939 327.497L387.275 326.686C389.074 325.865 390.3 324.15 390.448 322.517H387.773V321.623H391.61ZM404.225 327.414C404.225 328.364 403.183 328.982 401.376 328.982C399.559 328.982 398.507 328.364 398.507 327.414C398.507 326.464 399.559 325.846 401.376 325.846C403.183 325.846 404.225 326.464 404.225 327.414ZM405.166 325.219H397.742V324.362H400.555V322.932H401.634V324.362H405.166V325.219ZM404.207 321.06C404.207 322.591 404.096 323.283 403.949 323.956C403.607 323.91 403.257 323.854 402.906 323.818C403.045 323.264 403.128 322.775 403.128 321.909H398.59V321.06H404.207ZM403.128 327.423C403.128 326.944 402.445 326.713 401.376 326.713C400.297 326.713 399.623 326.944 399.623 327.423C399.623 327.885 400.297 328.124 401.376 328.124C402.445 328.124 403.128 327.885 403.128 327.423ZM412.343 322.96C412.343 324.048 411.199 324.786 409.42 324.786C407.649 324.786 406.505 324.048 406.505 322.96C406.505 321.881 407.649 321.143 409.42 321.143C411.199 321.143 412.343 321.881 412.343 322.96ZM408.543 328.973H407.465V326.234H405.721V325.376H413.145V326.234H411.365V328.973H410.287V326.234H408.543V328.973ZM411.218 322.96C411.218 322.416 410.526 322.01 409.42 322.01C408.304 322.01 407.621 322.416 407.621 322.96C407.621 323.504 408.304 323.919 409.42 323.919C410.526 323.919 411.218 323.504 411.218 322.96Z" fill="white"/>
<path d="M556.792 163.406H522.208V163.983H556.792V163.406Z" fill="#614AD3"/>
<path d="M621.347 150.438H561.403C558.856 150.438 556.792 152.502 556.792 155.049V172.34C556.792 174.887 558.856 176.951 561.403 176.951H621.347C623.894 176.951 625.958 174.887 625.958 172.34V155.049C625.958 152.502 623.894 150.438 621.347 150.438Z" fill="#614AD3"/>
<path d="M577.905 159.376V162.53H579.023V163.425H577.905V167.593H576.809V159.376H577.905ZM574.503 164.614V160.999H572.75V164.614H574.503ZM575.582 160.132V165.472H571.681V160.132H575.582ZM586.245 167.593H585.173V159.376H586.245V167.593ZM579.686 162.881C579.686 161.147 580.469 159.939 581.807 159.939C583.155 159.939 583.939 161.147 583.939 162.881C583.939 164.596 583.155 165.804 581.807 165.804C580.469 165.804 579.686 164.605 579.686 162.881ZM582.908 162.881C582.908 161.58 582.446 160.806 581.807 160.806C581.19 160.806 580.74 161.58 580.74 162.881C580.74 164.172 581.19 164.937 581.807 164.937C582.446 164.937 582.908 164.172 582.908 162.881ZM591.329 165.472C590.084 165.675 588.902 165.739 587.438 165.739C587.38 165.444 587.352 165.094 587.3 164.799H588.089C588.026 163.784 587.951 162.798 587.899 161.783C588.251 161.746 588.591 161.7 588.942 161.654C588.965 162.705 589.012 163.738 589.052 164.78L589.634 164.762C589.68 163.738 589.715 162.715 589.772 161.672L590.775 161.783C590.7 162.77 590.625 163.738 590.545 164.707C590.81 164.688 591.04 164.66 591.254 164.624L591.329 165.472ZM592.914 167.215H591.894V163.434H591.017V162.558H591.894V159.533H592.914V167.215ZM594.43 167.593H593.404V159.376H594.43V167.593ZM591.265 161.211H587.473V160.363H591.265V161.211ZM602.205 167.593H601.133V159.376H602.205V167.593ZM595.646 162.881C595.646 161.147 596.43 159.939 597.767 159.939C599.116 159.939 599.9 161.147 599.9 162.881C599.9 164.596 599.116 165.804 597.767 165.804C596.43 165.804 595.646 164.605 595.646 162.881ZM598.868 162.881C598.868 161.58 598.407 160.806 597.767 160.806C597.15 160.806 596.701 161.58 596.701 162.881C596.701 164.172 597.15 164.937 597.767 164.937C598.407 164.937 598.868 164.172 598.868 162.881ZM608.534 164.799L607.934 165.638C607.202 165.269 606.199 164.227 605.952 163.434C605.756 164.264 604.926 165.361 603.969 165.832L603.323 165.029C604.707 164.292 605.381 163.019 605.381 161.294V161.073H603.738V160.215H608.102V161.073H606.511V161.285C606.511 163.019 607.295 164.162 608.534 164.799ZM610.194 167.593H609.116V159.376H610.194V167.593Z" fill="white"/>
<path d="M591.663 176.951H591.087V195.396H591.663V176.951Z" fill="#614AD3"/>
<path d="M621.347 195.396H561.403C558.856 195.396 556.792 197.46 556.792 200.007V217.299C556.792 219.845 558.856 221.91 561.403 221.91H621.347C623.894 221.91 625.958 219.845 625.958 217.299V200.007C625.958 197.46 623.894 195.396 621.347 195.396Z" fill="#9E94D3"/>
<path d="M586.251 209.167H580.227V208.309H581.438L581.207 206.409L582.285 206.28L582.452 208.309H584.095L584.389 206.299L585.432 206.465L585.092 208.309H586.251V209.167ZM586.971 211.472H579.547V210.615H586.971V211.472ZM586.268 205.819H580.21V204.962H586.268V205.819ZM594.251 209.388H591.761V210.67H594.948V211.528H587.525V210.67H590.683V209.388H588.476V206.668H592.943V205.718H588.43V204.86H594.009V207.525H589.548V208.521H594.251V209.388ZM602.522 212.487H596.862V210.338H601.225V209.84H596.851V208.982H602.292V211.122H597.94V211.62H602.522V212.487ZM600.672 208.272C599.548 208.494 597.369 208.567 595.652 208.567L595.513 207.691H596.585C596.511 207.166 596.459 206.64 596.389 206.124C596.741 206.096 597.093 206.05 597.45 206.013C597.473 206.566 597.508 207.11 597.542 207.673C597.865 207.664 598.188 207.654 598.476 207.636L598.568 206.013C598.908 206.05 599.248 206.096 599.6 206.114L599.415 207.59C599.888 207.553 600.286 207.516 600.586 207.461L600.672 208.272ZM602.292 208.558H601.225V204.334H602.292V208.558ZM600.355 205.653H595.79V204.805H600.355V205.653Z" fill="white"/>
<path d="M591.663 221.91H591.087V231.132H591.663V221.91Z" fill="#9E94D3"/>
<path d="M612.701 231.132H570.048C562.727 231.132 556.792 237.067 556.792 244.389C556.792 251.711 562.727 257.646 570.048 257.646H612.701C620.023 257.646 625.958 251.711 625.958 244.389C625.958 237.067 620.023 231.132 612.701 231.132Z" fill="#5641BA" fill-opacity="0.9"/>
<path d="M577.115 248.288H576.043V240.071H577.115V248.288ZM570.556 243.575C570.556 241.841 571.34 240.633 572.677 240.633C574.023 240.633 574.807 241.841 574.807 243.575C574.807 245.29 574.023 246.498 572.677 246.498C571.34 246.498 570.556 245.3 570.556 243.575ZM573.774 243.575C573.774 242.275 573.313 241.5 572.677 241.5C572.059 241.5 571.607 242.275 571.607 243.575C571.607 244.866 572.059 245.632 572.677 245.632C573.313 245.632 573.774 244.866 573.774 243.575ZM585.104 248.288H584.02V240.071H585.104V248.288ZM581.496 245.336V241.684H579.761V245.336H581.496ZM582.585 240.827V246.194H578.683V240.827H582.585ZM591.421 245.493L590.822 246.332C590.095 245.964 589.087 244.921 588.839 244.128C588.643 244.958 587.813 246.056 586.856 246.526L586.21 245.724C587.594 244.986 588.268 243.713 588.268 241.989V241.767H586.625V240.91H590.989V241.767H589.404V241.98C589.404 243.713 590.187 244.857 591.421 245.493ZM593.081 248.288H592.003V240.071H593.081V248.288ZM600.92 248.297H599.83V245.373H596.683V244.525H604.107V245.373H600.92V248.297ZM603.808 242.966L603.335 243.842C602.119 243.658 600.81 242.874 600.401 241.97C600.044 242.874 598.735 243.649 597.49 243.852L597.029 242.966C598.447 242.81 599.83 241.897 599.83 240.67V240.246H600.972V240.67C600.972 241.897 602.488 242.846 603.808 242.966ZM611.52 246.646C611.52 247.642 610.459 248.269 608.638 248.269C606.822 248.269 605.761 247.642 605.761 246.646C605.761 245.622 606.822 244.995 608.638 244.995C610.459 244.995 611.52 245.622 611.52 246.646ZM604.949 241.537V240.652H609.278V241.537H607.715C607.802 242.68 608.632 243.446 609.525 243.741C609.341 244.027 609.139 244.304 608.943 244.589C608.315 244.35 607.514 243.732 607.162 242.985C606.914 243.778 606.05 244.553 605.254 244.829C605.035 244.543 604.833 244.267 604.609 243.99C605.761 243.575 606.517 242.708 606.586 241.537H604.949ZM609.145 242.902V242.035H610.384V240.071H611.462V244.958H610.384V242.902H609.145ZM608.638 245.862C607.525 245.862 606.868 246.148 606.868 246.646C606.868 247.126 607.525 247.411 608.638 247.411C609.773 247.411 610.419 247.126 610.419 246.646C610.419 246.148 609.773 245.862 608.638 245.862Z" fill="white"/>
<path d="M691.09 231.132H648.438C641.116 231.132 635.181 237.067 635.181 244.389C635.181 251.711 641.116 257.646 648.438 257.646H691.09C698.412 257.646 704.347 251.711 704.347 244.389C704.347 237.067 698.412 231.132 691.09 231.132Z" fill="#5641BA" fill-opacity="0.9"/>
<path d="M655.504 244.728H654.42V240.089H655.504V244.728ZM649.947 245.143H655.51V248.297H654.432V246H649.947V245.143ZM653.648 243.003L653.786 243.879C652.737 244.138 650.985 244.239 649.976 244.239H649.164V240.513H650.236V243.326C651.377 243.326 652.651 243.243 653.648 243.003ZM663.677 248.288H662.651V240.071H663.677V248.288ZM660.974 243.52H659.348V242.653H660.974V240.218H661.988V247.909H660.974V243.52ZM660.403 245.18L660.53 246.037C660.103 246.176 658.766 246.296 657.792 246.296H657.054V240.79H658.115V245.401C658.916 245.401 659.896 245.327 660.403 245.18ZM670.392 240.071H671.458V244.7H670.392V240.071ZM671.458 248.186H666.057V245.134H671.458V248.186ZM670.392 247.347V245.964H667.135V247.347H670.392ZM664.968 242.496C664.968 241.362 665.919 240.513 667.135 240.513C668.352 240.513 669.314 241.343 669.314 242.496C669.314 243.658 668.369 244.405 667.135 244.405C665.925 244.405 664.968 243.658 664.968 242.496ZM666 242.487C666 243.123 666.455 243.575 667.135 243.575C667.792 243.575 668.277 243.114 668.277 242.487C668.277 241.878 667.844 241.408 667.135 241.408C666.444 241.408 666 241.897 666 242.487ZM679.309 248.297H678.219V245.373H675.072V244.525H682.496V245.373H679.309V248.297ZM682.196 242.966L681.724 243.842C680.508 243.658 679.199 242.874 678.79 241.97C678.433 242.874 677.124 243.649 675.879 243.852L675.418 242.966C676.836 242.81 678.219 241.897 678.219 240.67V240.246H679.361V240.67C679.361 241.897 680.876 242.846 682.196 242.966ZM689.908 246.646C689.908 247.642 688.848 248.269 687.027 248.269C685.211 248.269 684.15 247.642 684.15 246.646C684.15 245.622 685.211 244.995 687.027 244.995C688.848 244.995 689.908 245.622 689.908 246.646ZM683.338 241.537V240.652H687.666V241.537H686.104C686.191 242.68 687.021 243.446 687.914 243.741C687.73 244.027 687.528 244.304 687.332 244.589C686.704 244.35 685.903 243.732 685.551 242.985C685.303 243.778 684.439 244.553 683.643 244.829C683.424 244.543 683.222 244.267 682.998 243.99C684.15 243.575 684.905 242.708 684.975 241.537H683.338ZM687.534 242.902V242.035H688.773V240.071H689.851V244.958H688.773V242.902H687.534ZM687.027 245.862C685.914 245.862 685.257 246.148 685.257 246.646C685.257 247.126 685.914 247.411 687.027 247.411C688.162 247.411 688.808 247.126 688.808 246.646C688.808 246.148 688.162 245.862 687.027 245.862Z" fill="white"/>
<path d="M591.663 257.646H591.087V276.09H591.663V257.646Z" fill="#614AD3"/>
<path d="M621.347 276.09H561.403C558.856 276.09 556.792 278.155 556.792 280.701V297.993C556.792 300.54 558.856 302.604 561.403 302.604H621.347C623.894 302.604 625.958 300.54 625.958 297.993V280.701C625.958 278.155 623.894 276.09 621.347 276.09Z" fill="#9E94D3"/>
<path d="M573.078 293.246H572.008V285.029H573.078V293.246ZM570.579 291.217H566.696V285.693H567.766V287.666H569.491V285.674H570.579V291.217ZM569.491 290.369V288.515H567.766V290.369H569.491ZM581.058 289.133H579.985V285.029H581.058V289.133ZM581.3 293.172H575.635V290.968H579.985V290.405H575.616V289.548H581.058V291.752H576.712V292.314H581.3V293.172ZM578.539 288.893H574.676V285.444H578.539V288.893ZM577.461 288.054V286.274H575.755V288.054H577.461ZM587.969 288.1H586.798V287.224H587.969V285.029H589.035V290.986H587.969V288.1ZM589.219 293.025H583.634V290.433H584.712V292.176H589.219V293.025ZM586.383 289.631H582.51V285.527H583.594V286.8H585.311V285.508H586.383V289.631ZM585.311 288.773V287.639H583.594V288.773H585.311ZM597.652 292.278H590.228V291.42H593.381V290.618C592.113 290.488 591.317 289.917 591.317 289.114C591.317 288.201 592.349 287.593 593.946 287.593C595.542 287.593 596.574 288.201 596.574 289.114C596.574 289.926 595.761 290.507 594.464 290.627V291.42H597.652V292.278ZM597.202 287.325H590.683V286.477H597.202V287.325ZM595.479 289.114C595.479 288.653 594.787 288.404 593.946 288.404C593.116 288.404 592.412 288.653 592.412 289.114C592.412 289.594 593.116 289.824 593.946 289.824C594.787 289.824 595.479 289.594 595.479 289.114ZM592.482 286.053V285.204H595.387V286.053H592.482ZM607.416 285.029V290.986H606.35V288.976H605.179V288.1H606.35V287.178H605.179V286.292H606.35V285.029H607.416ZM604.764 289.649H600.891V285.545H601.975V286.809H603.692V285.527H604.764V289.649ZM603.692 288.792V287.657H601.975V288.792H603.692ZM607.6 293.025H602.015V290.488H603.081V292.176H607.6V293.025ZM615.462 291.577C615.462 292.591 614.431 293.246 612.638 293.246C610.868 293.246 609.848 292.591 609.848 291.577C609.848 290.553 610.868 289.907 612.638 289.907C614.431 289.907 615.462 290.553 615.462 291.577ZM615.405 289.797H614.327V288.902H612.822V288.081H614.327V287.27H612.938V286.421H614.327V285.029H615.405V289.797ZM614.344 291.577C614.344 291.079 613.739 290.765 612.638 290.765C611.589 290.765 610.972 291.079 610.972 291.577C610.972 292.084 611.589 292.379 612.638 292.379C613.739 292.379 614.344 292.084 614.344 291.577ZM612.817 285.564C612.724 287.842 611.324 289.188 609.174 289.861L608.603 288.994C610.038 288.672 611.324 287.814 611.618 286.458H608.995V285.564H612.817Z" fill="white"/>
<path d="M591.663 302.604H591.087V321.049H591.663V302.604Z" fill="#614AD3"/>
<path d="M621.347 321.049H561.403C558.856 321.049 556.792 323.113 556.792 325.66V342.951C556.792 345.498 558.856 347.562 561.403 347.562H621.347C623.894 347.562 625.958 345.498 625.958 342.951V325.66C625.958 323.113 623.894 321.049 621.347 321.049Z" fill="#9E94D3"/>
<path d="M586.268 335.041H583.778V336.323H586.971V337.181H579.547V336.323H582.7V335.041H580.498V332.32H584.96V331.371H580.452V330.513H586.032V333.178H581.565V334.174H586.268V335.041ZM594.948 337.042H587.525V336.194H594.948V337.042ZM594.009 330.826C594.009 333.16 593.825 334.681 593.634 335.705L592.58 335.604C592.764 334.783 592.943 333.031 592.931 331.675H588.378V330.826H594.009ZM602.292 335.945H601.225V329.987H602.292V335.945ZM602.476 337.983H596.781V335.355H597.865V337.134H602.476V337.983ZM595.767 332.625C595.767 331.463 596.643 330.596 597.986 330.596C599.341 330.596 600.211 331.463 600.211 332.625C600.211 333.805 599.341 334.644 597.986 334.644C596.643 334.644 595.767 333.805 595.767 332.625ZM596.874 332.625C596.874 333.28 597.294 333.759 597.986 333.759C598.695 333.759 599.11 333.28 599.11 332.625C599.11 331.998 598.695 331.518 597.986 331.518C597.294 331.518 596.874 331.998 596.874 332.625Z" fill="white"/>
<path d="M591.663 347.562H591.087V356.785H591.663V347.562Z" fill="#9E94D3"/>
<path d="M612.701 356.785H570.048C562.727 356.785 556.792 362.72 556.792 370.042C556.792 377.363 562.727 383.299 570.048 383.299H612.701C620.023 383.299 625.958 377.363 625.958 370.042C625.958 362.72 620.023 356.785 612.701 356.785Z" fill="#5641BA" fill-opacity="0.9"/>
<path d="M570.496 366.553C570.496 369.32 569.297 371.294 566.844 372.566L566.18 371.801C567.323 371.275 568.264 370.427 568.826 369.348L566.549 369.597C566.502 369.283 566.456 368.979 566.401 368.665L569.186 368.462C569.269 368.14 569.334 367.798 569.361 367.448H566.807V366.553H570.496ZM572.709 365.723V368.877H573.862V369.772H572.709V373.94H571.639V365.723H572.709ZM578.475 366.553C578.475 369.32 577.276 371.294 574.823 372.566L574.159 371.801C575.303 371.275 576.243 370.427 576.804 369.348L574.528 369.597C574.482 369.283 574.436 368.979 574.381 368.665L577.167 368.462C577.247 368.14 577.311 367.798 577.34 367.448H574.786V366.553H578.475ZM580.689 365.723V368.877H581.841V369.772H580.689V373.94H579.616V365.723H580.689ZM589.674 372.917H582.251V372.059H585.415V370.75C583.911 370.574 582.948 369.698 582.948 368.499C582.948 367.171 584.147 366.24 585.968 366.24C587.79 366.24 588.983 367.171 588.983 368.499C588.983 369.707 588.014 370.593 586.493 370.75V372.059H589.674V372.917ZM587.893 368.509C587.893 367.688 587.138 367.125 585.968 367.125C584.804 367.125 584.049 367.688 584.049 368.509C584.049 369.339 584.804 369.892 585.968 369.892C587.127 369.892 587.893 369.339 587.893 368.509ZM599.375 370.777H596.885V372.059H600.072V372.917H592.649V372.059H595.807V370.777H593.6V368.057H598.067V367.107H593.554V366.249H599.133V368.914H594.672V369.91H599.375V370.777ZM608.055 372.778H600.632V371.93H608.055V372.778ZM607.116 366.563C607.116 368.896 606.932 370.417 606.736 371.441L605.686 371.34C605.871 370.519 606.044 368.767 606.032 367.411H601.479V366.563H607.116ZM615.399 371.681H614.327V365.723H615.399V371.681ZM615.583 373.719H609.883V371.091H610.972V372.871H615.583V373.719ZM608.868 368.361C608.868 367.199 609.744 366.332 611.093 366.332C612.448 366.332 613.312 367.199 613.312 368.361C613.312 369.541 612.448 370.381 611.093 370.381C609.744 370.381 608.868 369.541 608.868 368.361ZM609.975 368.361C609.975 369.016 610.401 369.495 611.093 369.495C611.802 369.495 612.217 369.016 612.217 368.361C612.217 367.734 611.802 367.254 611.093 367.254C610.401 367.254 609.975 367.734 609.975 368.361Z" fill="white"/>
<path d="M691.09 356.785H648.438C641.116 356.785 635.181 362.72 635.181 370.042C635.181 377.363 641.116 383.299 648.438 383.299H691.09C698.412 383.299 704.347 377.363 704.347 370.042C704.347 362.72 698.412 356.785 691.09 356.785Z" fill="#5641BA" fill-opacity="0.9"/>
<path d="M655.187 366.166C655.187 367.494 655.107 368.73 654.922 369.671H656.138V370.528H652.945V373.94H651.867V370.528H648.714V369.671H653.896C654.046 368.96 654.121 368.038 654.121 367.033H649.625V366.166H655.187ZM663.493 373.83H657.597V371.626H662.127V371.017H657.533V370.168H663.193V372.373H658.669V372.963H663.493V373.83ZM663.17 366.009C663.17 367.051 663.095 367.891 662.928 368.619H664.115V369.477H656.692V368.619H661.902C662.023 368.158 662.098 367.393 662.087 366.858H657.643V366.009H663.17ZM673.816 370.777H671.326V372.059H674.519V372.917H667.095V372.059H670.248V370.777H668.046V368.057H672.508V367.107H668V366.249H673.58V368.914H669.113V369.91H673.816V370.777ZM682.497 372.778H675.073V371.93H682.497V372.778ZM681.557 366.563C681.557 368.896 681.373 370.417 681.182 371.441L680.128 371.34C680.312 370.519 680.491 368.767 680.479 367.411H675.926V366.563H681.557ZM689.84 371.681H688.773V365.723H689.84V371.681ZM690.024 373.719H684.329V371.091H685.413V372.871H690.024V373.719ZM683.315 368.361C683.315 367.199 684.191 366.332 685.534 366.332C686.889 366.332 687.759 367.199 687.759 368.361C687.759 369.541 686.889 370.381 685.534 370.381C684.191 370.381 683.315 369.541 683.315 368.361ZM684.422 368.361C684.422 369.016 684.842 369.495 685.534 369.495C686.243 369.495 686.658 369.016 686.658 368.361C686.658 367.734 686.243 367.254 685.534 367.254C684.842 367.254 684.422 367.734 684.422 368.361Z" fill="white"/>
<path d="M769.479 356.785H726.826C719.505 356.785 713.569 362.72 713.569 370.042C713.569 377.363 719.505 383.299 726.826 383.299H769.479C776.801 383.299 782.736 377.363 782.736 370.042C782.736 362.72 776.801 356.785 769.479 356.785Z" fill="#5641BA" fill-opacity="0.9"/>
<path d="M729.858 373.94H728.786V365.723H729.858V373.94ZM723.299 369.228C723.299 367.494 724.083 366.286 725.42 366.286C726.769 366.286 727.553 367.494 727.553 369.228C727.553 370.943 726.769 372.151 725.42 372.151C724.083 372.151 723.299 370.952 723.299 369.228ZM726.515 369.228C726.515 367.928 726.054 367.153 725.42 367.153C724.803 367.153 724.348 367.928 724.348 369.228C724.348 370.519 724.803 371.284 725.42 371.284C726.054 371.284 726.515 370.519 726.515 369.228ZM734.619 366.71V368.674H735.391V365.88H736.394V373.562H735.391V369.541H734.619V371.764H731.299V366.71H734.619ZM738.037 373.94H737.005V365.723H738.037V373.94ZM733.605 370.943V367.54H732.314V370.943H733.605ZM746.072 373.876H740.418V371.672H744.746V371.1H740.371V370.252H745.813V372.446H741.501V373.009H746.072V373.876ZM745.813 369.836H744.746V365.723H745.813V369.836ZM739.265 367.909C739.265 366.812 740.187 366 741.455 366C742.706 366 743.622 366.793 743.622 367.909C743.622 369.006 742.706 369.744 741.455 369.744C740.233 369.744 739.265 369.034 739.265 367.909ZM740.337 367.9C740.337 368.453 740.815 368.85 741.455 368.85C742.124 368.85 742.55 368.407 742.55 367.9C742.55 367.337 742.147 366.885 741.455 366.885C740.844 366.885 740.337 367.347 740.337 367.9ZM756.153 370.777H753.663V372.059H756.85V372.917H749.427V372.059H752.585V370.777H750.378V368.057H754.845V367.107H750.331V366.249H755.911V368.914H751.45V369.91H756.153V370.777ZM764.833 372.778H757.41V371.93H764.833V372.778ZM763.894 366.563C763.894 368.896 763.709 370.417 763.513 371.441L762.464 371.34C762.649 370.519 762.822 368.767 762.81 367.411H758.257V366.563H763.894ZM772.177 371.681H771.104V365.723H772.177V371.681ZM772.361 373.719H766.661V371.091H767.75V372.871H772.361V373.719ZM765.646 368.361C765.646 367.199 766.522 366.332 767.871 366.332C769.225 366.332 770.09 367.199 770.09 368.361C770.09 369.541 769.225 370.381 767.871 370.381C766.522 370.381 765.646 369.541 765.646 368.361ZM766.753 368.361C766.753 369.016 767.179 369.495 767.871 369.495C768.58 369.495 768.995 369.016 768.995 368.361C768.995 367.734 768.58 367.254 767.871 367.254C767.179 367.254 766.753 367.734 766.753 368.361Z" fill="white"/>
<path d="M591.663 383.299H591.087V401.743H591.663V383.299Z" fill="#614AD3"/>
<path d="M621.347 401.743H561.403C558.856 401.743 556.792 403.808 556.792 406.354V423.646C556.792 426.192 558.856 428.257 561.403 428.257H621.347C623.894 428.257 625.958 426.192 625.958 423.646V406.354C625.958 403.808 623.894 401.743 621.347 401.743Z" fill="#9E94D3"/>
<path d="M582.233 415.735H579.743V417.017H582.937V417.875H575.513V417.017H578.666V415.735H576.464V413.015H580.925V412.065H576.418V411.207H581.997V413.873H577.53V414.869H582.233V415.735ZM590.914 417.737H583.49V416.888H590.914V417.737ZM589.974 411.521C589.974 413.854 589.79 415.376 589.6 416.399L588.545 416.298C588.729 415.477 588.908 413.725 588.896 412.369H584.343V411.521H589.974ZM597.9 410.682V413.836H599.116V414.73H597.9V418.899H596.805V410.682H597.9ZM591.536 414.186C591.536 412.452 592.332 411.244 593.669 411.244C595.012 411.244 595.796 412.452 595.796 414.186C595.796 415.901 595.012 417.11 593.669 417.11C592.332 417.11 591.536 415.911 591.536 414.186ZM594.764 414.186C594.764 412.886 594.303 412.111 593.669 412.111C593.046 412.111 592.585 412.886 592.585 414.186C592.585 415.477 593.046 416.243 593.669 416.243C594.303 416.243 594.764 415.477 594.764 414.186ZM606.038 412.397C606.038 413.319 604.983 413.965 603.156 413.965C601.341 413.965 600.292 413.319 600.292 412.397C600.292 411.466 601.341 410.838 603.156 410.838C604.983 410.838 606.038 411.466 606.038 412.397ZM603.687 415.984H602.603V415.173H599.45V414.306H606.874V415.173H603.687V415.984ZM606.338 418.124C606.182 418.41 606.015 418.687 605.854 418.972C604.782 418.843 603.548 418.17 603.151 417.497C602.811 418.207 601.612 418.834 600.436 418.963C600.263 418.677 600.107 418.382 599.94 418.096C601.398 417.958 602.603 417.359 602.603 416.335V416.28H603.704V416.335C603.704 417.349 605.001 417.94 606.338 418.124ZM604.92 412.397C604.92 411.954 604.286 411.65 603.156 411.65C602.044 411.65 601.404 411.954 601.404 412.397C601.404 412.84 602.044 413.153 603.156 413.153C604.24 413.153 604.92 412.84 604.92 412.397Z" fill="white"/>
<path d="M591.663 428.257H591.087V437.479H591.663V428.257Z" fill="#9E94D3"/>
<path d="M612.701 437.479H570.048C562.727 437.479 556.792 443.415 556.792 450.736C556.792 458.058 562.727 463.993 570.048 463.993H612.701C620.023 463.993 625.958 458.058 625.958 450.736C625.958 443.415 620.023 437.479 612.701 437.479Z" fill="#5641BA" fill-opacity="0.9"/>
<path d="M576.752 446.418V449.572H577.968V450.466H576.752V454.635H575.656V446.418H576.752ZM570.39 449.922C570.39 448.189 571.183 446.98 572.52 446.98C573.866 446.98 574.65 448.189 574.65 449.922C574.65 451.638 573.866 452.846 572.52 452.846C571.183 452.846 570.39 451.647 570.39 449.922ZM573.617 449.922C573.617 448.622 573.156 447.847 572.52 447.847C571.902 447.847 571.441 448.622 571.441 449.922C571.441 451.213 571.902 451.979 572.52 451.979C573.156 451.979 573.617 451.213 573.617 449.922ZM585.092 454.635H584.02V446.418H585.092V454.635ZM578.533 449.922C578.533 448.189 579.317 446.98 580.654 446.98C582.003 446.98 582.787 448.189 582.787 449.922C582.787 451.638 582.003 452.846 580.654 452.846C579.317 452.846 578.533 451.647 578.533 449.922ZM581.755 449.922C581.755 448.622 581.294 447.847 580.654 447.847C580.037 447.847 579.588 448.622 579.588 449.922C579.588 451.213 580.037 451.979 580.654 451.979C581.294 451.979 581.755 451.213 581.755 449.922ZM593.018 454.635H591.928V446.418H593.018V454.635ZM587.842 451.748C589.058 451.748 590.28 451.702 591.19 451.499C591.248 451.794 591.283 452.08 591.329 452.385C590.533 452.578 589.179 452.661 587.594 452.661C587.317 452.661 587.052 452.652 586.775 452.652V447.174H590.51V448.032H587.842V451.748ZM597.755 451.527H603.243V452.375H601.093C601.335 453.196 602.539 453.86 603.64 453.869L603.122 454.709C602.026 454.607 600.799 453.796 600.476 453.224C600.188 453.805 599 454.598 597.83 454.69L597.312 453.851C598.447 453.851 599.658 453.233 599.905 452.375H597.755V451.527ZM596.862 448.686V447.838H601.197V448.686H599.646C599.848 449.563 600.603 450.042 601.387 450.254C601.214 450.531 601.041 450.808 600.856 451.084C600.228 450.9 599.369 450.328 599.035 449.627C598.741 450.365 597.923 451.066 597.11 451.315C596.914 451.047 596.712 450.762 596.51 450.494C597.513 450.162 598.217 449.59 598.413 448.686H596.862ZM604.24 449.332H603.104V451.112H602.032V446.418H603.104V448.447H604.24V449.332ZM597.836 447.386V446.547H600.228V447.386H597.836ZM611.462 454.635H610.384V446.418H611.462V454.635ZM608.937 447.275C608.868 449.756 607.773 451.785 605.266 453.15L604.603 452.339C606.401 451.518 607.623 449.802 607.773 448.17H605.099V447.275H608.937Z" fill="white"/>
<path d="M691.09 437.479H648.438C641.116 437.479 635.181 443.415 635.181 450.736C635.181 458.058 641.116 463.993 648.438 463.993H691.09C698.412 463.993 704.347 458.058 704.347 450.736C704.347 443.415 698.412 437.479 691.09 437.479Z" fill="#5641BA" fill-opacity="0.9"/>
<path d="M647.435 454.635H646.363V446.418H647.435V454.635ZM644.933 452.606H641.048V447.082H642.12V449.055H643.844V447.063H644.933V452.606ZM643.844 451.758V449.904H642.12V451.758H643.844ZM655.412 450.522H654.34V446.418H655.412V450.522ZM655.654 454.561H649.988V452.357H654.34V451.794H649.971V450.937H655.412V453.141H651.066V453.703H655.654V454.561ZM652.893 450.282H649.031V446.833H652.893V450.282ZM651.815 449.443V447.663H650.109V449.443H651.815ZM662.323 449.489H661.153V448.613H662.323V446.418H663.389V452.375H662.323V449.489ZM663.574 454.414H657.988V451.822H659.066V453.565H663.574V454.414ZM660.738 451.02H656.864V446.916H657.948V448.189H659.666V446.897H660.738V451.02ZM659.666 450.162V449.028H657.948V450.162H659.666ZM672.006 453.667H664.582V452.809H667.735V452.007C666.467 451.877 665.672 451.306 665.672 450.503C665.672 449.59 666.703 448.982 668.3 448.982C669.897 448.982 670.928 449.59 670.928 450.503C670.928 451.315 670.116 451.896 668.819 452.016V452.809H672.006V453.667ZM671.557 448.714H665.038V447.866H671.557V448.714ZM669.833 450.503C669.833 450.042 669.141 449.793 668.3 449.793C667.47 449.793 666.767 450.042 666.767 450.503C666.767 450.983 667.47 451.213 668.3 451.213C669.141 451.213 669.833 450.983 669.833 450.503ZM666.836 447.442V446.593H669.741V447.442H666.836ZM681.978 454.635H680.952V450.513H680.289V454.257H679.28V446.565H680.289V449.646H680.952V446.418H681.978V454.635ZM679.027 451.951L678.427 452.735C677.891 452.403 677.199 451.555 676.986 450.826C676.802 451.582 676.093 452.541 675.436 452.92L674.784 452.2C675.943 451.426 676.479 450.245 676.479 448.622V448.262H675.096V447.405H678.802V448.262H677.522V448.604C677.522 450.208 678.047 451.379 679.027 451.951ZM689.759 450.577H688.681V448.76H687.28V447.893H688.681V446.418H689.759V450.577ZM690.013 454.57H684.358V452.385H688.681V451.85H684.312V450.992H689.759V453.178H685.448V453.703H690.013V454.57ZM687.863 449.701L687.263 450.503C686.635 450.264 685.788 449.636 685.436 448.88C685.188 449.719 684.295 450.457 683.517 450.715L682.9 449.913C684.082 449.48 684.854 448.53 684.854 447.285V446.676H685.978V447.229C685.978 448.493 686.912 449.397 687.863 449.701ZM697.794 452.993C697.794 453.989 696.733 454.616 694.918 454.616C693.102 454.616 692.041 453.989 692.041 452.993C692.041 451.97 693.102 451.343 694.918 451.343C696.733 451.343 697.794 451.97 697.794 452.993ZM691.229 447.884V446.999H695.557V447.884H693.995C694.082 449.028 694.912 449.793 695.805 450.088C695.621 450.374 695.419 450.651 695.223 450.937C694.595 450.697 693.794 450.079 693.442 449.332C693.194 450.125 692.33 450.9 691.534 451.177C691.315 450.891 691.108 450.614 690.889 450.337C692.041 449.922 692.796 449.055 692.86 447.884H691.229ZM695.425 449.249V448.382H696.664V446.418H697.742V451.306H696.664V449.249H695.425ZM694.918 452.209C693.805 452.209 693.148 452.495 693.148 452.993C693.148 453.473 693.805 453.759 694.918 453.759C696.053 453.759 696.699 453.473 696.699 452.993C696.699 452.495 696.053 452.209 694.918 452.209Z" fill="white"/>
</g>
</g>
<defs>
<clipPath id="clip0_30_7379">
<rect width="830" height="547.569" fill="white"/>
</clipPath>
</defs>
</svg>
