<svg width="830" height="548" viewBox="0 0 830 548" fill="none" xmlns="http://www.w3.org/2000/svg">
<g clip-path="url(#clip0_29_922)">
<mask id="mask0_29_922" style="mask-type:luminance" maskUnits="userSpaceOnUse" x="0" y="0" width="830" height="548">
<path d="M830 0H0V547.569H830V0Z" fill="white"/>
</mask>
<g mask="url(#mask0_29_922)">
<path d="M830 0H0V547.569H830V0Z" fill="#EDEFF5"/>
<path d="M830 0H0V547.569H830V0Z" fill="#EDEFF5"/>
<path d="M370.879 290.143H368.163V294.501H365.271V283.09H368.163V287.777H370.879V290.143ZM362.643 293.581H353.225V284.251H356.094V286.879H359.73V284.207H362.643V293.581ZM359.73 291.281V289.113H356.094V291.281H359.73ZM368.36 298.597C368.36 301.006 365.753 302.518 361.438 302.518C357.145 302.518 354.583 301.006 354.583 298.597C354.583 296.144 357.145 294.611 361.438 294.611C365.753 294.611 368.36 296.144 368.36 298.597ZM361.438 296.932C358.963 296.932 357.496 297.589 357.496 298.597C357.496 299.605 358.963 300.24 361.438 300.24C364.001 300.24 365.425 299.605 365.425 298.597C365.425 297.589 364.001 296.932 361.438 296.932ZM386.062 284.119V291.238H373.008V284.119H386.062ZM381.069 298.29H378.134V294.83H370.687V292.574H388.318V294.83H381.069V298.29ZM386.259 302.123H372.943V296.472H375.812V299.867H386.259V302.123ZM383.127 288.982V286.375H375.943V288.982H383.127ZM399.779 288.785H388.389V286.572H399.779V288.785ZM398.837 292.793C398.837 294.874 396.931 296.472 394.128 296.472C391.324 296.472 389.419 294.874 389.419 292.793C389.419 290.734 391.302 289.113 394.128 289.113C396.931 289.113 398.837 290.734 398.837 292.793ZM391.215 285.762V283.637H397.085V285.762H391.215ZM403.875 283.09V289.661H406.503V292.026H403.875V297.787H401.005V283.09H403.875ZM404.269 302.277H390.842V297.086H393.821V299.977H404.269V302.277ZM392.288 292.793C392.288 293.603 393.033 294.326 394.128 294.326C395.245 294.326 395.99 293.603 395.99 292.793C395.99 292.026 395.245 291.216 394.128 291.216C393.033 291.216 392.288 292.026 392.288 292.793ZM426.586 298.553C426.586 300.962 423.98 302.474 419.665 302.474C415.372 302.474 412.787 300.962 412.787 298.553C412.787 296.1 415.372 294.545 419.665 294.545C423.98 294.545 426.586 296.1 426.586 298.553ZM411.407 286.638V284.294H421.702V286.638H418.11C418.416 289.354 420.256 291.041 422.534 291.807L420.979 294.085C419.489 293.603 417.409 291.895 416.686 290.274C416.182 292.004 413.904 293.888 412.021 294.479L410.553 292.179C413.291 291.26 414.934 289.376 415.131 286.638H411.407ZM429.105 290.186H426.389V294.304H423.52V283.09H426.389V287.843H429.105V290.186ZM419.665 296.889C417.19 296.889 415.722 297.524 415.722 298.553C415.722 299.539 417.19 300.196 419.665 300.196C422.227 300.196 423.629 299.539 423.629 298.553C423.629 297.568 422.227 296.889 419.665 296.889ZM446.085 291.566L444.792 293.997C442.383 293.537 438.791 291.632 437.696 288.785C436.666 291.632 433.14 293.516 430.643 293.997L429.351 291.588C432.549 291.216 436.163 288.785 436.163 285.214V284.185H439.273V285.214C439.273 288.806 442.843 291.194 446.085 291.566ZM446.545 300.196H428.913V297.918H436.228V293.494H439.098V297.918H446.545V300.196ZM462.232 289.726H449.069V283.331H462.101V285.652H451.96V287.427H462.232V289.726ZM464.401 293.077H446.769V290.756H464.401V293.077ZM462.714 302.561H448.915V297.349H459.297V296.472H448.937V294.195H462.188V299.364H451.785V300.196H462.714V302.561ZM482.256 293.297H464.625V290.997H482.256V293.297ZM480.57 302.496H466.815V297.283H477.175V296.472H466.793V294.195H480.088V299.298H469.684V300.13H480.57V302.496ZM469.553 286.901C469.553 287.602 470.801 288.127 473.43 288.127C476.014 288.127 477.328 287.602 477.328 286.901C477.328 286.222 476.014 285.652 473.43 285.652C470.801 285.652 469.553 286.222 469.553 286.901ZM466.508 286.879C466.508 284.886 468.83 283.506 473.43 283.506C478.029 283.506 480.373 284.886 480.373 286.879C480.373 288.872 478.029 290.23 473.43 290.23C468.83 290.23 466.508 288.872 466.508 286.879ZM503.369 302.605H500.456V283.09H503.369V302.605ZM497.477 285.105C497.302 290.8 494.98 295.75 488.65 299.232L487.008 296.954C491.279 294.961 494.017 291.216 494.411 287.47H488.212V285.105H497.477ZM520.327 283.09V288.456H523.043V290.822H520.327V297.151H517.458V283.09H520.327ZM520.699 302.058H507.448V295.881H510.339V299.78H520.699V302.058ZM514.829 294.479H505.389V284.492H508.237V287.492H511.938V284.492H514.829V294.479ZM511.938 292.267V289.661H508.237V292.267H511.938ZM540.483 300.13H522.851V297.808H540.483V300.13ZM538.928 289.639C538.928 292.727 536.058 294.939 531.656 294.939C527.275 294.939 524.406 292.727 524.406 289.639C524.406 286.529 527.275 284.338 531.656 284.338C536.058 284.338 538.928 286.529 538.928 289.639ZM535.993 289.661C535.993 287.799 534.306 286.616 531.656 286.616C529.028 286.616 527.341 287.799 527.341 289.661C527.341 291.457 529.028 292.661 531.656 292.661C534.24 292.661 535.993 291.457 535.993 289.661ZM556.652 295.071H550.957V297.918H558.339V300.196H540.707V297.918H548.088V295.071H542.919V288.412H553.257V286.529H542.897V284.207H556.148V290.734H545.81V292.771H556.652V295.071ZM579.98 302.452H566.353V297.02H576.493V296.078H566.397V293.8H579.432V299.101H569.266V300.174H579.98V302.452ZM579.432 293.056H576.493V283.09H579.432V293.056ZM563.769 288.303C563.769 285.587 566.069 283.769 569.047 283.769C572.048 283.769 574.392 285.609 574.392 288.303C574.392 290.975 572.048 292.837 569.047 292.837C566.025 292.837 563.769 290.953 563.769 288.303ZM566.594 288.303C566.594 289.683 567.646 290.537 569.047 290.537C570.449 290.537 571.544 289.683 571.544 288.303C571.544 286.923 570.449 286.047 569.047 286.047C567.624 286.047 566.594 286.923 566.594 288.303ZM597.306 302.605H594.395V283.09H597.306V302.605ZM591.415 285.105C591.242 290.8 588.92 295.75 582.591 299.232L580.948 296.954C585.219 294.961 587.957 291.216 588.349 287.47H582.153V285.105H591.415ZM616.563 294.107H598.931V291.96H616.563V294.107ZM614.724 302.474H601.058V297.743H611.416V296.91H601.012V294.895H614.31V299.626H603.952V300.459H614.724V302.474ZM614.592 291.106H601.231V286.55H611.266V285.806H601.231V283.791H614.2V288.303H604.171V289.113H614.592V291.106ZM639.1 300.13H621.445V297.808H639.1V300.13ZM639.209 291.873L637.544 294.173C636.12 293.603 635.008 292.399 634.523 291.194C633.999 292.661 632.443 294.107 631.348 294.611L629.682 292.442C631.699 291.435 633.077 289.442 633.077 286.55V284.316H635.901V286.55C635.901 289.442 637.065 290.931 639.209 291.873ZM630.385 291.26L628.454 293.472C627.78 293.165 626.661 292.004 626.287 291.172C625.785 292.53 624.385 294.085 623.071 294.545L621.318 292.223C623.791 291.128 624.863 289.004 624.863 286.507V284.448H627.757V286.507C627.757 289.047 629.002 290.646 630.385 291.26ZM656.933 300.086H639.302V297.808H645.504V291.26H648.414V297.808H656.933V300.086ZM655.095 284.82C655.204 288.522 654.789 292.99 654.178 295.706C653.256 295.596 652.334 295.531 651.44 295.421C651.896 293.603 652.224 290.449 652.224 288.872C652.224 288.325 652.207 287.668 652.207 287.12H641.233V284.82H655.095ZM657.008 303.065L657.902 298.509H660.905L659.285 303.065H657.008ZM677.476 288.785H666.086V286.572H677.476V288.785ZM676.536 292.793C676.536 294.874 674.629 296.472 671.827 296.472C669.02 296.472 667.118 294.874 667.118 292.793C667.118 290.734 669.003 289.113 671.827 289.113C674.629 289.113 676.536 290.734 676.536 292.793ZM668.911 285.762V283.637H674.784V285.762H668.911ZM681.574 283.09V289.661H684.202V292.026H681.574V297.787H678.704V283.09H681.574ZM681.966 302.277H668.542V297.086H671.522V299.977H681.966V302.277ZM669.989 292.793C669.989 293.603 670.732 294.326 671.827 294.326C672.945 294.326 673.689 293.603 673.689 292.793C673.689 292.026 672.945 291.216 671.827 291.216C670.732 291.216 669.989 292.026 669.989 292.793ZM694.566 297.83H691.609V294.676H684.099V292.377H701.73V294.676H694.566V297.83ZM699.604 290.712H686.462V283.856H689.396V288.434H699.604V290.712ZM699.69 302.123H686.352V296.472H689.223V299.867H699.69V302.123ZM714.567 301.707H711.898V292.705H710.693C710.451 295.772 709.247 298.75 706.445 298.75C703.31 298.75 702.151 295.005 702.151 291.544C702.151 288.171 703.31 284.492 706.445 284.492C709.16 284.492 710.365 287.229 710.647 290.164H711.898V283.462H714.567V301.707ZM718.601 302.605H715.881V283.09H718.601V302.605ZM708.042 291.588C708.042 289.288 707.667 287.186 706.463 287.186C705.281 287.186 704.912 289.288 704.912 291.588C704.912 293.91 705.281 295.969 706.463 295.969C707.667 295.969 708.042 293.91 708.042 291.588ZM736.054 297.458C734.959 297.699 731.674 297.984 729.53 298.115C727.887 298.225 726.135 298.247 724.423 298.247L724.094 295.859H726.659C726.417 293.34 726.198 290.8 725.979 288.259C726.919 288.149 727.864 288.084 728.803 287.974C728.89 290.581 729.045 293.209 729.132 295.815L730.93 295.75C731.08 293.143 731.282 290.581 731.432 287.974L734.239 288.281C733.951 290.712 733.668 293.121 733.426 295.553C734.256 295.487 735.046 295.377 735.881 295.246L736.054 297.458ZM739.778 283.09V290.515H742.429V292.902H739.778V302.605H736.867V283.09H739.778ZM735.288 286.967H724.642V284.711H735.288V286.967ZM760.286 290.033H757.657V294.326H754.764V283.09H757.657V287.668H760.286V290.033ZM744.775 295.421H757.675V302.627H754.787V297.699H744.775V295.421ZM742.366 288.785C742.366 285.981 744.579 284.119 747.473 284.119C750.406 284.119 752.62 285.981 752.62 288.785C752.62 291.566 750.406 293.516 747.473 293.516C744.579 293.516 742.366 291.566 742.366 288.785ZM745.173 288.785C745.173 290.23 746.158 291.062 747.473 291.062C748.827 291.062 749.836 290.252 749.836 288.785C749.836 287.339 748.804 286.463 747.473 286.463C746.176 286.463 745.173 287.317 745.173 288.785ZM364.132 314.598H352.787V312.473H364.132V314.598ZM355.656 311.663V309.691H361.417V311.663H355.656ZM370.813 317.204H368.163V320.993H365.293V309.604H368.163V314.817H370.813V317.204ZM368.535 329.163H355.218V324.563H365.271V323.819H355.218V321.716H368.163V326.403H358.131V327.016H368.535V329.163ZM363.234 317.949C363.234 319.635 361.285 321.037 358.525 321.037C355.722 321.037 353.794 319.635 353.794 317.949C353.794 316.24 355.7 314.882 358.525 314.882C361.285 314.882 363.234 316.24 363.234 317.949ZM356.707 317.949C356.707 318.606 357.452 319.044 358.525 319.044C359.599 319.044 360.365 318.606 360.365 317.949C360.365 317.292 359.599 316.854 358.525 316.854C357.452 316.854 356.707 317.292 356.707 317.949ZM385.53 329.141H382.661V322.351H375.345V320.051H392.977V322.351H385.53V329.141ZM392.21 316.24L391.093 318.606C388.114 318.168 385.179 316.459 384.172 314.313C383.12 316.459 380.229 318.212 377.272 318.628L376.133 316.306C379.463 315.956 382.661 313.94 382.661 310.918V310.02H385.683V310.918C385.683 313.94 388.859 315.868 392.21 316.24ZM408.943 315.43C408.943 318.102 406.643 319.986 403.664 319.986C400.685 319.986 398.451 318.102 398.451 315.43C398.451 312.714 400.707 310.896 403.664 310.896C406.665 310.896 408.943 312.714 408.943 315.43ZM414.068 329.141C412.732 328.681 411.177 327.17 410.761 325.921C410.388 327.192 408.899 328.703 407.234 329.513L405.657 327.564C408.045 326.469 409.293 324.629 409.293 322.132V321.344H412.162V322.176C412.162 324.585 413.433 326.381 415.601 327.038C415.075 327.739 414.594 328.462 414.068 329.141ZM411.111 309.582H414.046V320.555H411.111V309.582ZM405.613 327.192C404.956 326.863 404.234 326.228 403.905 325.637C403.357 327.192 401.583 328.812 399.963 329.338C399.437 328.572 398.911 327.849 398.407 327.082C400.685 326.25 402.306 324.454 402.306 322.001V321.366H405.132V321.957C405.132 323.797 406.38 324.695 407.519 325.111C406.884 325.812 406.271 326.491 405.613 327.192ZM406.139 315.43C406.139 314.116 405.044 313.24 403.664 313.24C402.306 313.24 401.233 314.116 401.233 315.43C401.233 316.744 402.306 317.576 403.664 317.576C405.066 317.576 406.139 316.744 406.139 315.43ZM424.083 311.882C424.127 313.634 423.907 315.233 423.513 316.722H425.55V309.954H428.266V328.243H425.55V319.11H422.637C421.432 321.541 419.549 323.556 416.942 325.133L415.212 322.964C419.045 320.774 420.841 317.73 421.235 314.159H416.373V311.882H424.083ZM432.362 329.119H429.646V309.604H432.362V329.119ZM583.732 316.525H572.385V314.247H583.732V316.525ZM575.189 313.108V310.786H581.213V313.108H575.189ZM587.871 309.604V317.533H590.522V319.898H587.871V329.119H584.977V309.604H587.871ZM573.415 321.366C573.415 318.825 575.474 317.182 578.17 317.182C580.839 317.182 582.965 318.847 582.965 321.366C582.965 323.906 580.839 325.571 578.17 325.571C575.474 325.571 573.415 323.884 573.415 321.366ZM575.977 321.366C575.977 322.658 576.942 323.49 578.17 323.49C579.352 323.49 580.377 322.658 580.377 321.366C580.377 320.095 579.392 319.241 578.17 319.241C576.942 319.241 575.977 320.095 575.977 321.366ZM600.228 320.643H591.093V311.4H600.228V320.643ZM603.669 315.058H601.41V312.802H603.669V309.604H606.58V323.753H603.669V319.329H601.41V317.073H603.669V315.058ZM606.863 328.637H593.415V322.526H596.372V326.381H606.863V328.637ZM597.381 318.343V313.7H593.963V318.343H597.381ZM613.151 317.905C613.151 313.809 615.099 310.852 618.212 310.852C620.99 310.852 622.788 313.152 623.157 316.547H626.183V309.604H629.14V329.119H626.183V319H623.18C622.875 322.439 621.036 324.892 618.212 324.892C615.099 324.892 613.151 321.935 613.151 317.905ZM620.529 317.905C620.529 314.926 619.503 313.415 618.212 313.415C616.938 313.415 615.929 314.926 615.929 317.905C615.929 320.84 616.938 322.373 618.212 322.373C619.503 322.373 620.529 320.84 620.529 317.905ZM647.85 328.966H634.005V323.578H644.409V322.504H634.005V320.248H647.325V325.658H636.944V326.688H647.85V328.966ZM641.89 315.671V313.415H644.541V309.604H647.325V319.241H644.541V315.671H641.89ZM633.676 316.854C634.356 316.897 635.428 316.7 636.304 316.525L636.46 318.584C634.644 319 632.408 319.088 630.898 319.066V310.48H636.132V312.758H633.676V316.854ZM639.878 316.963C640.841 316.963 642.045 316.832 642.968 316.678L643.163 318.737C641.936 319 639.354 319.263 637.117 319.175V310.48H642.547V312.758H639.878V316.963ZM663.994 309.604V317.226H666.715V319.613H663.994V329.119H661.17V309.604H663.994ZM654.38 311.597C654.49 317.379 653.394 321.563 650.374 324.782L648.161 323.14C650.835 320.643 651.602 316.832 651.579 314.05H649.169V311.597H654.38ZM659.723 311.597C659.856 317.423 659.049 322.088 655.936 326.162L653.613 324.607C656.092 321.716 657.008 317.357 656.968 314.05H655.325V311.597H659.723ZM668.317 322.154V320.468C668.317 318.956 669.02 318.343 670.421 317.226C671.297 316.547 671.689 316.043 671.689 314.97C671.689 313.7 670.882 313.218 669.257 313.218C668.052 313.218 667.308 313.415 666.455 313.721V311.575C667.464 311.137 668.6 310.918 670.115 310.918C672.721 310.918 674.755 311.991 674.755 314.707C674.755 316.613 674.121 317.314 672.565 318.496C671.383 319.372 670.882 319.723 670.882 320.687V322.154H668.317ZM668.161 326.907V324.125H671.118V326.907H668.161Z" fill="#614AD3" fill-opacity="0.2"/>
<path d="M456.256 315.934H453.54V319.395H450.627V309.604H453.54V313.547H456.256V315.934ZM454.022 328.966H440.639V323.556H450.627V322.527H440.639V320.249H453.54V325.637H443.574V326.644H454.022V328.966ZM441.691 316.788C444.56 316.766 447.145 316.591 449.072 316.175C449.138 316.898 449.225 317.664 449.313 318.387C447.583 318.891 444.341 319.11 440.552 319.11H438.822V310.633H447.561V312.889H441.691V316.788ZM466.249 320.709C464.541 320.993 461.102 321.234 458.846 321.234C458.145 321.234 457.444 321.191 456.743 321.191V314.817H462.591V313.218H456.765V310.962H465.526V316.963H459.656V318.956H460.445C462.066 318.956 464.694 318.803 466.03 318.562L466.249 320.709ZM472.272 321.563H469.359V318.562H466.731V316.197H469.359V314.576H466.731V312.189H469.359V309.604H472.272V321.563ZM458.955 322.461H472.294V329.141H469.381V324.739H458.955V322.461ZM489.07 315.189H478.819V312.999H489.07V315.189ZM481.229 312.21V310.02H486.924V312.21H481.229ZM494.83 322.636H491.874V319.964H489.727V317.796H491.874V316.175H489.88V314.028H491.874V309.604H494.83V322.636ZM488.785 319C488.785 320.906 486.858 322.395 484.076 322.395C481.273 322.395 479.345 320.906 479.345 319C479.345 317.182 481.251 315.649 484.076 315.649C486.858 315.649 488.785 317.182 488.785 319ZM482.258 319C482.258 319.745 483.003 320.336 484.076 320.336C485.149 320.336 485.894 319.745 485.894 319C485.894 318.299 485.149 317.686 484.076 317.686C483.003 317.686 482.258 318.299 482.258 319ZM494.787 325.856C494.787 327.959 492.158 329.097 487.909 329.097C483.638 329.097 480.966 327.915 480.966 325.856C480.966 323.819 483.638 322.658 487.909 322.658C492.158 322.658 494.787 323.819 494.787 325.856ZM487.909 324.848C485.412 324.848 484.01 325.308 484.01 325.878C484.01 326.491 485.412 326.929 487.909 326.929C490.406 326.929 491.808 326.469 491.808 325.878C491.808 325.33 490.406 324.848 487.909 324.848ZM513.103 329.119H510.343V319.482H509.007V328.221H506.313V309.933H509.007V317.095H510.343V309.604H513.103V329.119ZM499.742 322.242C499.895 322.264 500.136 322.264 500.421 322.264C501.669 322.264 503.903 322.132 505.327 321.826C505.415 322.57 505.48 323.315 505.546 324.038C504.144 324.366 500.377 324.52 498.165 324.52C497.705 324.52 497.333 324.52 497.048 324.498V311.75H504.736V314.028H499.742V316.744H504.341V319.022H499.742V322.242ZM530.258 321.585H524.563V324.432H531.944V326.71H514.312V324.432H521.694V321.585H516.525V314.926H526.863V313.043H516.503V310.721H529.754V317.248H519.416V319.285H530.258V321.585ZM554.458 326.71H536.827V324.432H540.966V321.015H543.857V324.432H547.318V321.015H550.253V324.432H554.458V326.71ZM552.772 320.183H538.404V317.927H541.098L540.55 314.466L543.419 314.182L543.726 317.927H547.581L547.931 314.204L550.801 314.51L550.144 317.927H552.772V320.183ZM552.816 313.174H538.382V310.874H552.816V313.174ZM563.071 312.495H557.64V310.305H563.071V312.495ZM565.218 315.518H554.967V313.284H565.218V315.518ZM571.307 328.791H557.618V323.622H560.553V326.513H571.307V328.791ZM570.869 324.257H567.956V320.993H565.546V318.672H567.956V316.898H565.678V314.576H567.956V309.604H570.869V324.257ZM564.736 319.416C564.736 321.453 562.874 323.009 560.18 323.009C557.508 323.009 555.646 321.453 555.646 319.416C555.646 317.38 557.486 315.824 560.18 315.824C562.874 315.824 564.736 317.38 564.736 319.416ZM562.042 319.395C562.042 318.628 561.275 317.883 560.18 317.883C559.085 317.883 558.362 318.628 558.362 319.395C558.362 320.205 559.085 320.906 560.18 320.906C561.275 320.906 562.042 320.205 562.042 319.395Z" fill="#614AD3" fill-opacity="0.8"/>
<path d="M368.36 416.888C368.36 419.166 365.819 420.677 361.592 420.677C357.299 420.677 354.736 419.166 354.736 416.888C354.736 414.654 357.299 413.143 361.592 413.143C365.819 413.143 368.36 414.654 368.36 416.888ZM370.462 412.135H352.831V409.879H359.445V406.375H362.358V409.879H370.462V412.135ZM368.185 401.863C368.185 405.937 367.856 407.229 367.549 408.762L364.812 408.434C365.096 407.251 365.315 405.783 365.315 404.447V404.097H354.824V401.863H368.185ZM365.381 416.91C365.381 415.924 363.914 415.443 361.592 415.443C359.226 415.443 357.737 415.924 357.737 416.91C357.737 417.874 359.226 418.377 361.592 418.377C363.914 418.377 365.381 417.874 365.381 416.91ZM388.756 409.003H386.019V415.245H383.127V401.25H386.019V406.594H388.756V409.003ZM380.74 402.717C380.455 408.872 375.987 412.31 371.65 413.34L370.468 411.018C374.016 410.252 376.929 407.82 377.52 405.104H371.366V402.717H380.74ZM386.479 420.305H373.381V413.778H376.316V417.939H386.479V420.305ZM409.957 420.612H396.333V415.18H406.474V414.238H396.377V411.96H409.409V417.26H399.246V418.334H409.957V420.612ZM409.409 411.215H406.474V401.25H409.409V411.215ZM393.749 406.462C393.749 403.746 396.048 401.929 399.027 401.929C402.028 401.929 404.371 403.768 404.371 406.462C404.371 409.135 402.028 410.996 399.027 410.996C396.005 410.996 393.749 409.113 393.749 406.462ZM396.574 406.462C396.574 407.842 397.625 408.696 399.027 408.696C400.429 408.696 401.524 407.842 401.524 406.462C401.524 405.083 400.429 404.206 399.027 404.206C397.603 404.206 396.574 405.083 396.574 406.462ZM427.287 420.765H424.374V401.25H427.287V420.765ZM421.395 403.265C421.22 408.959 418.898 413.909 412.568 417.392L410.926 415.114C415.197 413.121 417.934 409.375 418.329 405.63H412.13V403.265H421.395ZM451.225 418.29H433.571V415.968H451.225V418.29ZM451.334 410.033L449.67 412.332C448.246 411.763 447.129 410.558 446.647 409.354C446.122 410.821 444.566 412.267 443.471 412.77L441.807 410.602C443.822 409.594 445.202 407.601 445.202 404.71V402.476H448.027V404.71C448.027 407.601 449.188 409.091 451.334 410.033ZM442.508 409.419L440.58 411.631C439.901 411.325 438.784 410.164 438.412 409.332C437.908 410.69 436.506 412.245 435.192 412.705L433.44 410.383C435.915 409.288 436.988 407.163 436.988 404.666V402.607H439.879V404.666C439.879 407.207 441.128 408.806 442.508 409.419ZM467.657 420.765H464.744V401.25H467.657V420.765ZM461.765 403.265C461.59 408.959 459.268 413.909 452.938 417.392L451.296 415.114C455.567 413.121 458.305 409.375 458.699 405.63H452.5V403.265H461.765ZM485.228 413.23H479.534V416.078H486.915V418.356H469.283V416.078H476.664V413.23H471.495V406.572H481.833V404.688H471.473V402.367H484.725V408.894H474.386V410.931H485.228V413.23ZM602.384 420.765H599.623V411.478H598.286V419.889H595.658V401.556H598.286V409.156H599.623V401.25H602.384V420.765ZM594.718 412.88C594.718 415.158 592.966 416.888 590.401 416.888C587.726 416.888 586.043 415.136 586.043 412.88C586.043 410.58 587.819 408.872 590.401 408.872C592.966 408.872 594.718 410.602 594.718 412.88ZM585.646 408.302V406.046H595.024V408.302H585.646ZM587.859 405.017V402.739H593.093V405.017H587.859ZM592.153 412.88C592.153 411.85 591.41 411.018 590.401 411.018C589.369 411.018 588.585 411.829 588.585 412.88C588.585 413.975 589.369 414.742 590.401 414.742C591.41 414.742 592.153 413.931 592.153 412.88ZM457.961 434.685H446.616V432.407H457.961V434.685ZM449.419 431.268V428.946H455.442V431.268H449.419ZM462.101 427.763V435.692H464.751V438.058H462.101V447.279H459.21V427.763H462.101ZM447.645 439.525C447.645 436.984 449.704 435.342 452.398 435.342C455.07 435.342 457.195 437.006 457.195 439.525C457.195 442.066 455.07 443.731 452.398 443.731C449.704 443.731 447.645 442.044 447.645 439.525ZM450.208 439.525C450.208 440.817 451.171 441.65 452.398 441.65C453.581 441.65 454.61 440.817 454.61 439.525C454.61 438.255 453.624 437.401 452.398 437.401C451.171 437.401 450.208 438.255 450.208 439.525ZM482.256 444.76H464.625V442.482H470.823V435.933H473.736V442.482H482.256V444.76ZM480.417 429.494C480.526 433.195 480.11 437.663 479.497 440.379C478.577 440.27 477.657 440.204 476.759 440.095C477.219 438.277 477.547 435.123 477.547 433.546C477.547 432.998 477.526 432.341 477.526 431.794H466.552V429.494H480.417ZM482.327 447.739L483.225 443.183H486.226L484.605 447.739H482.327ZM512.451 441.913H509.494V435.605H506.209V433.239H509.494V427.763H512.451V441.913ZM512.824 446.731H499.419V440.577H502.31V444.475H512.824V446.731ZM506.45 429.231C506.187 435.386 501.566 438.868 497.36 439.854L496.177 437.532C499.682 436.765 502.639 434.312 503.252 431.618H497.075V429.231H506.45ZM532.125 434.466H529.409V438.934H526.518V427.763H529.409V432.122H532.125V434.466ZM529.672 443.249C529.672 445.702 527.241 447.301 522.926 447.301C518.677 447.301 516.267 445.702 516.267 443.249C516.267 440.817 518.677 439.197 522.926 439.197C527.241 439.197 529.672 440.817 529.672 443.249ZM526.693 443.249C526.693 442.219 525.357 441.518 522.926 441.518C520.56 441.518 519.224 442.219 519.224 443.249C519.224 444.322 520.56 445.001 522.926 445.001C525.357 445.001 526.693 444.322 526.693 443.249ZM524.065 429.099C523.868 434.488 520.451 437.817 514.931 439.328L513.814 437.028C517.385 436.306 520.451 433.94 520.801 431.465H514.778V429.099H524.065ZM543.169 433.458H531.78V431.246H543.169V433.458ZM542.227 437.466C542.227 439.547 540.322 441.146 537.518 441.146C534.715 441.146 532.809 439.547 532.809 437.466C532.809 435.407 534.693 433.787 537.518 433.787C540.322 433.787 542.227 435.407 542.227 437.466ZM534.605 430.436V428.311H540.475V430.436H534.605ZM547.265 427.763V434.334H549.893V436.7H547.265V442.46H544.396V427.763H547.265ZM547.659 446.95H534.233V441.759H537.212V444.65H547.659V446.95ZM535.679 437.466C535.679 438.277 536.423 439 537.518 439C538.635 439 539.38 438.277 539.38 437.466C539.38 436.7 538.635 435.889 537.518 435.889C536.423 435.889 535.679 436.7 535.679 437.466ZM688.531 438.781H670.899V436.634H688.531V438.781ZM686.692 447.147H673.026V442.416H683.384V441.584H672.98V439.569H686.277V444.3H675.914V445.132H686.692V447.147ZM686.56 435.78H673.199V431.224H683.234V430.479H673.199V428.464H686.168V432.976H676.133V433.787H686.56V435.78ZM708.745 427.763V433.261H711.46V435.648H708.745V441.913H705.857V427.763H708.745ZM709.143 446.731H695.955V440.533H698.825V444.453H709.143V446.731ZM703.16 438.518H693.92V429.362H703.16V438.518ZM700.289 436.24V431.64H696.768V436.24H700.289ZM726.734 434.4H713.569V428.004H726.602V430.326H716.463V432.1H726.734V434.4ZM728.901 437.751H711.27V435.429H728.901V437.751ZM727.218 447.235H713.42V442.022H723.8V441.146H713.437V438.868H726.688V444.037H716.284V444.869H727.218V447.235ZM729.368 436.065C729.368 431.969 731.316 429.012 734.429 429.012C737.207 429.012 739.005 431.312 739.374 434.707H742.4V427.763H745.357V447.279H742.4V437.16H739.397C739.092 440.598 737.253 443.052 734.429 443.052C731.316 443.052 729.368 440.095 729.368 436.065ZM736.746 436.065C736.746 433.086 735.72 431.574 734.429 431.574C733.155 431.574 732.146 433.086 732.146 436.065C732.146 439 733.155 440.533 734.429 440.533C735.72 440.533 736.746 439 736.746 436.065ZM764.614 444.869H746.983V442.57H754.366V439.109H749.017V429.012H751.911V431.925H759.64V429.012H762.557V439.109H757.231V442.57H764.614V444.869ZM759.64 436.831V434.137H751.911V436.831H759.64ZM776.667 440.555L775.047 442.876C773.514 441.956 771.214 439.657 770.574 437.751C770.009 439.854 767.836 442.394 766.044 443.358L764.332 441.146C767.664 439.175 769.041 436.305 769.041 432.056V431.969H765.3V429.559H775.791V431.969H772.021C772.021 436.196 773.623 438.912 776.667 440.555ZM780.171 427.763V435.123H782.799V437.488H780.171V447.279H777.324V427.763H780.171ZM783.923 440.204L783.462 429.056H786.725L786.373 440.204H783.923ZM783.681 444.957V442.175H786.615V444.957H783.681Z" fill="#614AD3" fill-opacity="0.2"/>
<path d="M508.554 420.612H494.93V415.18H505.071V414.238H494.974V411.96H508.006V417.26H497.843V418.334H508.554V420.612ZM508.006 411.215H505.071V401.25H508.006V411.215ZM492.346 406.462C492.346 403.746 494.645 401.929 497.624 401.929C500.625 401.929 502.968 403.768 502.968 406.462C502.968 409.135 500.625 410.996 497.624 410.996C494.602 410.996 492.346 409.113 492.346 406.462ZM495.171 406.462C495.171 407.842 496.222 408.696 497.624 408.696C499.026 408.696 500.121 407.842 500.121 406.462C500.121 405.083 499.026 404.206 497.624 404.206C496.201 404.206 495.171 405.083 495.171 406.462ZM525.884 420.765H522.971V401.25H525.884V420.765ZM519.992 403.265C519.817 408.959 517.495 413.909 511.165 417.392L509.523 415.114C513.794 413.121 516.532 409.375 516.926 405.63H510.727V403.265H519.992ZM545.141 412.267H527.509V410.12H545.141V412.267ZM543.301 420.633H529.634V415.902H539.994V415.07H529.59V413.055H542.885V417.786H532.525V418.618H543.301V420.633ZM543.17 409.266H529.809V404.71H539.841V403.965H529.809V401.95H542.776V406.462H532.744V407.273H543.17V409.266ZM565.553 416.888C565.553 419.166 563.013 420.677 558.785 420.677C554.492 420.677 551.93 419.166 551.93 416.888C551.93 414.654 554.492 413.143 558.785 413.143C563.013 413.143 565.553 414.654 565.553 416.888ZM567.656 412.135H550.024V409.879H556.639V406.375H559.552V409.879H567.656V412.135ZM565.378 401.863C565.378 405.937 565.05 407.229 564.743 408.762L562.005 408.434C562.29 407.251 562.509 405.783 562.509 404.447V404.097H552.017V401.863H565.378ZM562.575 416.91C562.575 415.924 561.107 415.443 558.785 415.443C556.42 415.443 554.931 415.924 554.931 416.91C554.931 417.874 556.42 418.377 558.785 418.377C561.107 418.377 562.575 417.874 562.575 416.91ZM583.692 406.287C583.692 408.915 580.914 410.668 576.683 410.668C572.48 410.668 569.654 408.915 569.654 406.287C569.654 403.725 572.48 401.95 576.683 401.95C580.914 401.95 583.692 403.725 583.692 406.287ZM574.758 420.743H571.823V414.347H567.88V412.048H585.513V414.347H581.438V420.743H578.545V414.347H574.758V420.743ZM580.648 406.287C580.648 405.148 579.092 404.206 576.683 404.206C574.254 404.206 572.699 405.148 572.699 406.287C572.699 407.47 574.254 408.412 576.683 408.412C579.092 408.412 580.648 407.47 580.648 406.287ZM623.538 401.25V408.499H626.252V410.865H623.538V420.765H620.69V401.25H623.538ZM620.079 413.756L618.413 416.056C616.771 415.158 614.557 413.011 613.969 411.128C613.485 413.143 611.209 415.662 609.479 416.538L607.681 414.369C611.053 412.354 612.436 409.485 612.436 405.389V402.848H615.433V405.28C615.433 409.354 617.013 412.048 620.079 413.756ZM627.987 405.433C627.987 403.286 630.598 401.709 634.91 401.709C639.227 401.709 641.878 403.286 641.878 405.433C641.878 406.594 641.066 407.601 639.665 408.28V410.361H643.74V412.639H626.108V410.361H630.051V408.193C628.713 407.536 627.987 406.55 627.987 405.433ZM641.723 417.041C641.723 419.232 639.158 420.699 634.933 420.699C630.639 420.699 628.12 419.232 628.12 417.041C628.12 414.807 630.639 413.362 634.887 413.362C639.158 413.362 641.723 414.807 641.723 417.041ZM631.036 405.455C631.036 406.397 632.5 407.032 634.91 407.032C637.342 407.032 638.829 406.397 638.829 405.455C638.829 404.535 637.319 403.878 634.91 403.878C632.5 403.878 631.036 404.535 631.036 405.455ZM638.743 417.085C638.743 416.187 637.233 415.64 634.887 415.64C632.61 415.64 631.1 416.187 631.1 417.085C631.1 417.874 632.61 418.465 634.887 418.465C637.233 418.465 638.743 417.874 638.743 417.085ZM634.91 409.156C634.212 409.156 633.572 409.113 632.985 409.025V410.361H636.771V409.047C636.201 409.135 635.567 409.156 634.91 409.156ZM655.792 414.041L654.167 416.362C652.634 415.443 650.334 413.143 649.7 411.237C649.129 413.34 646.962 415.881 645.169 416.844L643.458 414.632C646.789 412.661 648.167 409.792 648.167 405.542V405.455H644.42V403.046H654.916V405.455H651.147C651.147 409.682 652.743 412.398 655.792 414.041ZM659.297 401.25V408.609H661.925V410.974H659.297V420.765H656.449V401.25H659.297ZM677.28 407.886H664.115V401.49H677.147V403.812H667.009V405.586H677.28V407.886ZM679.447 411.237H661.815V408.915H679.447V411.237ZM677.764 420.721H663.965V415.508H674.346V414.632H663.988V412.354H677.24V417.523H666.836V418.356H677.764V420.721ZM683.638 407.141C683.638 408.543 684.756 409.507 686.116 409.507C687.471 409.507 688.635 408.543 688.635 407.141C688.635 405.718 687.471 404.776 686.116 404.776C684.756 404.776 683.638 405.718 683.638 407.141ZM696.301 401.25V420.765H693.407V401.25H696.301ZM680.836 407.141C680.836 404.338 683.113 402.476 686.116 402.476C689.136 402.476 691.482 404.338 691.482 407.141C691.482 409.967 689.136 411.807 686.116 411.807C683.113 411.807 680.836 409.967 680.836 407.141ZM692.704 415.924C691.24 416.122 688.416 416.384 686.398 416.472C684.254 416.581 681.862 416.669 680.11 416.647L679.782 414.106C682.041 414.106 684.053 414.106 686.007 414.041C688.635 413.975 691.021 413.778 692.508 413.646L692.704 415.924ZM717.956 402.367C717.956 404.973 717.696 407.996 717.322 410.252H719.818V412.529H712.371V420.765H709.506V412.529H702.186V410.252H706.261C706.589 408.784 706.918 406.2 706.918 404.601H703.546V402.367H709.834C709.834 404.973 709.414 407.996 708.976 410.252H714.584C714.872 408.806 715.068 406.265 715.068 404.601H711.166V402.367H717.956ZM737 407.733L735.835 409.989C733.276 409.857 730.077 408.477 728.85 406.462C727.818 408.543 724.688 409.857 721.841 409.989L720.722 407.777C723.968 407.645 726.636 406.134 727.097 404.316H721.731V402.038H736.054V404.316H730.538C731.126 406.134 734.302 407.689 737 407.733ZM730.515 416.297H727.558V413.208H720.042V410.931H737.674V413.208H730.515V416.297ZM735.749 420.283H722.192V414.588H725.063V418.027H735.749V420.283ZM749.138 406.944H737.749V404.732H749.138V406.944ZM748.193 410.952C748.193 413.033 746.291 414.632 743.484 414.632C740.683 414.632 738.775 413.033 738.775 410.952C738.775 408.894 740.66 407.273 743.484 407.273C746.291 407.273 748.193 408.894 748.193 410.952ZM740.573 403.922V401.797H746.441V403.922H740.573ZM753.231 401.25V407.82H755.859V410.186H753.231V415.946H750.36V401.25H753.231ZM753.628 420.436H740.199V415.245H743.179V418.137H753.628V420.436ZM741.645 410.952C741.645 411.763 742.389 412.486 743.484 412.486C744.602 412.486 745.346 411.763 745.346 410.952C745.346 410.186 744.602 409.375 743.484 409.375C742.389 409.375 741.645 410.186 741.645 410.952ZM368.141 447.06H355.306V440.467H368.141V447.06ZM353.225 433.918V431.728H363.563V433.918H359.971C360.278 435.78 362.315 437.116 364.067 437.51C363.651 438.233 363.191 438.978 362.753 439.722C361.088 439.372 359.161 437.795 358.46 436.371C357.846 437.817 355.897 439.416 353.992 439.941C353.532 439.197 353.05 438.474 352.612 437.751C354.78 437.16 356.554 435.78 356.839 433.918H353.225ZM370.813 435.473H368.141V439.7H365.271V427.763H368.141V433.108H370.813V435.473ZM365.25 444.826V442.635H358.175V444.826H365.25ZM355.612 430.698V428.64H361.285V430.698H355.612ZM381.222 440.27L381.331 437.663H384.004V433.94H381.353L381.266 431.29H384.004V427.763H386.917V447.279H384.004V440.27H381.222ZM370.796 436.065C370.796 431.969 372.746 429.012 375.943 429.012C379.185 429.012 381.09 431.969 381.09 436.065C381.09 440.073 379.185 443.052 375.943 443.052C372.746 443.052 370.796 440.095 370.796 436.065ZM378.375 436.065C378.375 433.086 377.345 431.574 375.943 431.574C374.607 431.574 373.6 433.086 373.6 436.065C373.6 439 374.607 440.533 375.943 440.533C377.345 440.533 378.375 439 378.375 436.065ZM406.174 438.781H388.543V436.634H406.174V438.781ZM404.335 447.147H390.667V442.416H401.027V441.584H390.623V439.569H403.918V444.3H393.558V445.132H404.335V447.147ZM404.203 435.78H390.842V431.224H400.874V430.479H390.842V428.464H403.809V432.976H393.777V433.787H404.203V435.78ZM426.871 432.801C426.871 435.429 424.089 437.182 419.862 437.182C415.657 437.182 412.831 435.429 412.831 432.801C412.831 430.238 415.657 428.464 419.862 428.464C424.089 428.464 426.871 430.238 426.871 432.801ZM417.934 447.257H414.999V440.861H411.057V438.561H428.689V440.861H424.615V447.257H421.724V440.861H417.934V447.257ZM423.826 432.801C423.826 431.662 422.271 430.72 419.862 430.72C417.431 430.72 415.876 431.662 415.876 432.801C415.876 433.984 417.431 434.926 419.862 434.926C422.271 434.926 423.826 433.984 423.826 432.801ZM444.42 438.452H439.163V442.592H446.545V444.869H428.913V442.592H436.294V438.452H431.169V429.099H444.311V431.421H434.082V436.174H444.42V438.452ZM571.203 447.125H557.58V441.694H567.721V440.752H557.623V438.474H570.656V443.774H560.493V444.848H571.203V447.125ZM570.656 437.729H567.721V427.763H570.656V437.729ZM554.995 432.976C554.995 430.26 557.295 428.442 560.274 428.442C563.274 428.442 565.618 430.282 565.618 432.976C565.618 435.648 563.274 437.51 560.274 437.51C557.251 437.51 554.995 435.627 554.995 432.976ZM557.821 432.976C557.821 434.356 558.872 435.21 560.274 435.21C561.675 435.21 562.771 434.356 562.771 432.976C562.771 431.596 561.675 430.72 560.274 430.72C558.85 430.72 557.821 431.596 557.821 432.976ZM588.533 447.279H585.623V427.763H588.533V447.279ZM582.643 429.778C582.464 435.473 580.147 440.423 573.815 443.906L572.172 441.628C576.441 439.635 579.179 435.889 579.576 432.144H573.377V429.778H582.643ZM612.471 444.804H594.816V442.482H612.471V444.804ZM612.58 436.546L610.915 438.846C609.491 438.277 608.379 437.072 607.894 435.867C607.37 437.335 605.814 438.781 604.718 439.284L603.053 437.116C605.07 436.108 606.448 434.115 606.448 431.224V428.99H609.272V431.224C609.272 434.115 610.436 435.605 612.58 436.546ZM603.756 435.933L601.825 438.145C601.151 437.839 600.032 436.678 599.658 435.846C599.156 437.204 597.756 438.759 596.442 439.219L594.689 436.897C597.162 435.802 598.234 433.677 598.234 431.18V429.121H601.128V431.18C601.128 433.721 602.373 435.32 603.756 435.933ZM628.904 447.279H625.993V427.763H628.904V447.279ZM623.013 429.778C622.834 435.473 620.517 440.423 614.183 443.906L612.54 441.628C616.811 439.635 619.549 435.889 619.947 432.144H613.745V429.778H623.013ZM650.564 428.793V435.911H637.509V428.793H650.564ZM645.573 442.964H642.633V439.503H635.186V437.247H652.818V439.503H645.573V442.964ZM650.76 446.797H637.446V441.146H640.316V444.541H650.76V446.797ZM647.631 433.655V431.049H640.443V433.655H647.631ZM663.908 437.685C663.908 439.262 662.571 440.555 660.49 440.971V441.935C662.156 441.869 663.666 441.737 664.83 441.584L664.98 443.818C660.622 444.366 656.616 444.563 653.199 444.563C653.066 443.774 652.933 442.898 652.824 442.088C654.271 442.11 655.959 442.11 657.619 442.044V440.971C655.539 440.555 654.224 439.262 654.224 437.685C654.224 435.758 656.155 434.269 659.066 434.269C661.937 434.269 663.908 435.758 663.908 437.685ZM668.663 427.763V435.561H671.003V437.926H668.663V447.279H665.793V427.763H668.663ZM664.697 433.83H653.441V431.662H664.697V433.83ZM656.374 430.917V428.749H661.937V430.917H656.374ZM660.951 437.685C660.951 436.941 660.138 436.327 659.066 436.327C657.971 436.327 657.181 436.941 657.181 437.685C657.181 438.43 657.971 438.978 659.066 438.978C660.138 438.978 660.951 438.43 660.951 437.685Z" fill="#614AD3" fill-opacity="0.8"/>
<path d="M364.658 177.721L363.037 180.043C361.504 179.123 359.204 176.823 358.569 174.918C358 177.02 355.831 179.561 354.035 180.525L352.327 178.313C355.656 176.342 357.036 173.472 357.036 169.223V169.136H353.291V166.726H363.782V169.136H360.015C360.015 173.363 361.614 176.079 364.658 177.721ZM368.163 164.93V172.289H370.791V174.655H368.163V184.446H365.315V164.93H368.163ZM386.019 164.93V172.289H388.735V174.655H386.019V184.446H383.127V164.93H386.019ZM370.752 173.231C370.752 169.135 372.702 166.179 375.899 166.179C379.119 166.179 381.047 169.135 381.047 173.231C381.047 177.24 379.119 180.218 375.899 180.218C372.702 180.218 370.752 177.261 370.752 173.231ZM378.309 173.231C378.309 170.253 377.301 168.741 375.899 168.741C374.563 168.741 373.556 170.253 373.556 173.231C373.556 176.166 374.563 177.699 375.899 177.699C377.301 177.699 378.309 176.166 378.309 173.231ZM405.452 171.326L404.291 173.604C401.728 173.472 398.574 172.092 397.347 170.077C396.318 172.158 393.208 173.472 390.382 173.582L389.265 171.37C392.507 171.26 395.135 169.727 395.595 167.909H390.317V165.653H404.488V167.909H399.034C399.625 169.727 402.779 171.282 405.452 171.326ZM406.174 177.305H388.543V175.027H395.902V172.421H398.793V175.027H406.174V177.305ZM404.334 183.964H390.689V178.4H393.58V181.708H404.334V183.964ZM424.03 176.276H416.671V177.371C420.175 177.656 422.212 178.992 422.212 180.919C422.212 183.044 419.584 184.467 415.182 184.467C410.735 184.467 408.195 183.044 408.195 180.919C408.195 178.97 410.231 177.634 413.758 177.371V176.276H406.399V173.998H424.03V176.276ZM423.198 171.085C422.826 171.851 422.431 172.574 422.059 173.341C419.518 173.209 416.408 171.851 415.182 169.814C414.174 171.895 411.108 173.209 408.304 173.341L407.165 171.129C410.188 170.997 412.619 169.683 413.32 168.04H408.107V165.762H422.431V168.04H417.065C417.919 169.683 420.745 171.063 423.198 171.085ZM419.234 180.941C419.234 180.065 417.591 179.583 415.182 179.583C412.794 179.583 411.173 180.065 411.173 180.941C411.173 181.752 412.794 182.211 415.182 182.211C417.591 182.211 419.234 181.752 419.234 180.941ZM442.302 171.632H439.586V175.706H436.695V164.93H439.586V169.267H442.302V171.632ZM439.586 184.227H426.861V176.648H439.586V184.227ZM436.717 181.992V178.817H429.752V181.992H436.717ZM434.242 166.047C434.067 171.457 430.606 174.765 425.087 176.342L423.948 173.998C427.54 173.275 430.606 170.866 430.979 168.435H424.955V166.047H434.242ZM454.726 183.548H452.054V174.545H450.85C450.609 177.612 449.404 180.591 446.6 180.591C443.468 180.591 442.308 176.845 442.308 173.385C442.308 170.012 443.468 166.332 446.6 166.332C449.316 166.332 450.521 169.07 450.806 172.005H452.054V165.303H454.726V183.548ZM458.757 184.446H456.041V164.93H458.757V184.446ZM448.199 173.428C448.199 171.129 447.827 169.026 446.622 169.026C445.44 169.026 445.067 171.129 445.067 173.428C445.067 175.75 445.44 177.809 446.622 177.809C447.827 177.809 448.199 175.75 448.199 173.428ZM481.468 169.53L480.395 171.698C477.854 171.523 474.744 170.603 473.43 168.829C472.269 170.603 469.202 171.501 466.508 171.654L465.501 169.574C468.173 169.464 470.385 168.873 471.305 167.756H466.443V165.522H480.46V167.756H475.642C476.693 168.895 479.102 169.486 481.468 169.53ZM479.387 182.409C479.387 183.788 477.854 184.774 473.408 184.774C468.94 184.774 467.384 183.788 467.384 182.409C467.384 181.094 468.94 180.065 473.408 180.065C477.854 180.065 479.387 181.094 479.387 182.409ZM482.256 174.436H464.625V172.246H472.028V170.428H474.897V172.246H482.256V174.436ZM481.074 179.758H465.873V177.612H481.074V179.758ZM476.715 177.13H470.166V175.005H476.715V177.13ZM476.299 182.43C476.299 182.124 475.861 181.883 473.408 181.883C470.933 181.883 470.473 182.124 470.473 182.43C470.473 182.803 470.933 183 473.408 183C475.861 183 476.299 182.803 476.299 182.43ZM486.073 177.634H486.577C488.745 177.634 491.789 177.415 493.629 177.042C493.717 177.831 493.804 178.619 493.914 179.408C492.118 179.758 488.416 180.065 484.912 180.065H483.203V166.682H492.184V169.026H486.073V177.634ZM497.769 164.93V172.224H500.485V174.589H497.769V184.446H494.9V164.93H497.769ZM517.968 176.67H500.337V174.348H517.968V176.67ZM515.844 172.684H502.658V165.565H505.593V170.428H515.844V172.684ZM515.931 183.92H502.505V178.138H505.418V181.664H515.931V183.92ZM539.607 184.292H525.983V178.86H536.124V177.919H526.027V175.641H539.059V180.941H528.896V182.014H539.607V184.292ZM539.059 174.896H536.124V164.93H539.059V174.896ZM523.399 170.143C523.399 167.427 525.698 165.609 528.677 165.609C531.678 165.609 534.021 167.449 534.021 170.143C534.021 172.815 531.678 174.677 528.677 174.677C525.655 174.677 523.399 172.793 523.399 170.143ZM526.224 170.143C526.224 171.523 527.275 172.377 528.677 172.377C530.079 172.377 531.174 171.523 531.174 170.143C531.174 168.763 530.079 167.887 528.677 167.887C527.253 167.887 526.224 168.763 526.224 170.143ZM556.937 184.446H554.024V164.93H556.937V184.446ZM551.045 166.945C550.87 172.64 548.548 177.59 542.218 181.073L540.576 178.795C544.847 176.801 547.584 173.056 547.979 169.311H541.78V166.945H551.045ZM580.873 181.971H563.221V179.649H580.873V181.971ZM580.983 173.713L579.323 176.013C577.899 175.444 576.781 174.239 576.297 173.034C575.772 174.502 574.216 175.947 573.121 176.451L571.457 174.283C573.472 173.275 574.852 171.282 574.852 168.391V166.157H577.68V168.391C577.68 171.282 578.838 172.771 580.983 173.713ZM572.158 173.1L570.23 175.312C569.551 175.005 568.434 173.845 568.062 173.012C567.558 174.37 566.156 175.925 564.842 176.385L563.09 174.064C565.565 172.968 566.638 170.844 566.638 168.347V166.288H569.529V168.347C569.529 170.888 570.778 172.487 572.158 173.1ZM597.306 184.446H594.395V164.93H597.306V184.446ZM591.415 166.945C591.242 172.64 588.92 177.59 582.591 181.073L580.948 178.795C585.219 176.801 587.957 173.056 588.349 169.311H582.153V166.945H591.415ZM598.782 184.905L599.681 180.35H602.678L601.058 184.905H598.782ZM624.771 184.292H611.145V178.86H621.29V177.919H611.191V175.641H624.223V180.941H614.062V182.014H624.771V184.292ZM624.223 174.896H621.29V164.93H624.223V174.896ZM608.563 170.143C608.563 167.427 610.863 165.609 613.843 165.609C616.84 165.609 619.186 167.449 619.186 170.143C619.186 172.815 616.84 174.677 613.843 174.677C610.817 174.677 608.563 172.793 608.563 170.143ZM611.387 170.143C611.387 171.523 612.442 172.377 613.843 172.377C615.243 172.377 616.338 171.523 616.338 170.143C616.338 168.763 615.243 167.887 613.843 167.887C612.419 167.887 611.387 168.763 611.387 170.143ZM642.103 184.446H639.186V164.93H642.103V184.446ZM636.207 166.945C636.034 172.64 633.711 177.59 627.382 181.073L625.739 178.795C630.01 176.801 632.748 173.056 633.14 169.311H626.944V166.945H636.207ZM656.345 183.548H653.671V174.545H652.466C652.224 177.612 651.02 180.591 648.218 180.591C645.083 180.591 643.924 176.845 643.924 173.385C643.924 170.012 645.083 166.332 648.218 166.332C650.933 166.332 652.138 169.07 652.42 172.005H653.671V165.303H656.345V183.548ZM660.374 184.446H657.66V164.93H660.374V184.446ZM649.815 173.428C649.815 171.129 649.446 169.026 648.242 169.026C647.054 169.026 646.685 171.129 646.685 173.428C646.685 175.75 647.054 177.809 648.242 177.809C649.446 177.809 649.815 175.75 649.815 173.428ZM683.874 175.049H666.242V172.903H683.874V175.049ZM682.381 184.336H668.144V179.145H678.946V178.247H668.104V175.991H681.833V181.138H671.084V182.058H682.381V184.336ZM683.851 169.968L682.295 172.246C681.199 171.961 679.862 170.844 679.447 169.814C679.032 170.953 677.476 172.07 676.467 172.399L675.026 170.187C677.124 169.574 678.156 167.778 678.156 165.96V165.303H680.957V165.96C680.957 168.04 681.926 169.464 683.851 169.968ZM675.372 169.552L673.752 171.895C672.922 171.698 671.608 170.669 671.17 169.771C670.772 170.844 669.222 172.092 668.017 172.465L666.438 170.121C668.519 169.333 669.81 168.062 669.81 166.069V165.281H672.617V166.069C672.617 167.931 673.799 169.048 675.372 169.552ZM706.803 171.151H704.088V174.436H701.194V164.93H704.088V168.785H706.803V171.151ZM704.416 184.292H691.079V178.904H701.194V177.831H691.119V175.575H704.088V180.985H694.036V182.014H704.416V184.292ZM698.503 174.129H689.257V165.828H698.503V174.129ZM695.632 171.83V168.106H692.105V171.83H695.632ZM722.117 175.619H716.861V179.758H724.244V182.036H706.612V179.758H713.996V175.619H708.866V166.266H722.008V168.588H711.783V173.341H722.117V175.619ZM738.193 184.095H731.097V176.429H733.812V178.4H735.501V176.342H738.193V182.036C739.968 181.423 741.219 179.999 741.219 177.831V176.188H744.066V177.831C744.066 179.912 745.092 181.511 747.04 182.058L745.576 184.314C744.654 184.073 743.121 183.022 742.596 181.664C742.003 183.022 740.406 184.095 739.374 184.424L738.193 182.693V184.095ZM729.259 170.406C729.259 167.668 731.472 165.85 734.383 165.85C737.276 165.85 739.53 167.668 739.53 170.406C739.53 173.122 737.276 174.962 734.383 174.962C731.449 174.962 729.259 173.1 729.259 170.406ZM745.334 175.334H742.377V171.479H740.21V169.136H742.377V164.93H745.334V175.334ZM732.06 170.428C732.06 171.808 733.046 172.662 734.383 172.662C735.72 172.662 736.746 171.83 736.746 170.428C736.746 169.048 735.72 168.194 734.383 168.194C733.023 168.194 732.06 169.048 732.06 170.428ZM735.501 181.949V180.481H733.812V181.949H735.501ZM764.614 181.927H746.983V179.649H753.179V173.1H756.095V179.649H764.614V181.927ZM762.776 166.66C762.885 170.362 762.47 174.83 761.854 177.546C760.937 177.437 760.015 177.371 759.116 177.261C759.577 175.443 759.905 172.289 759.905 170.712C759.905 170.165 759.882 169.508 759.882 168.96H748.908V166.66H762.776ZM353.093 194.817V192.473H363.388V194.817H359.84C360.059 197.599 361.942 199.307 364.22 200.096L362.665 202.352C361.176 201.87 359.095 200.161 358.372 198.519C357.868 200.271 355.7 202.264 353.816 202.855L352.283 200.534C355.065 199.592 356.707 197.599 356.839 194.817H353.093ZM355.306 203.71H368.206V210.981H365.315V206.009H355.306V203.71ZM370.879 198.365H368.163V202.877H365.293V191.444H368.163V195.978H370.879V198.365ZM386.917 202.899H383.96V197.774H380.959V195.452H383.96V191.444H386.917V202.899ZM382.317 200.074L380.784 202.33C379.316 201.848 377.367 200.183 376.644 198.562C376.053 200.38 373.819 202.308 371.979 202.899L370.511 200.556C373.424 199.548 375.111 197.314 375.111 194.445V192.693H378.09V194.27C378.09 197.402 379.864 199.22 382.317 200.074ZM387.026 206.951C387.026 209.317 384.42 210.784 380.127 210.784C375.812 210.784 373.249 209.317 373.249 206.951C373.249 204.564 375.812 203.074 380.127 203.074C384.42 203.074 387.026 204.564 387.026 206.951ZM380.127 205.396C377.63 205.396 376.184 205.966 376.184 206.951C376.184 207.893 377.63 208.484 380.127 208.484C382.646 208.484 384.091 207.893 384.091 206.951C384.091 205.966 382.646 205.396 380.127 205.396ZM399.735 198.365H388.389V196.087H399.735V198.365ZM391.193 194.949V192.627H397.216V194.949H391.193ZM403.874 191.444V199.373H406.525V201.738H403.874V210.959H400.983V191.444H403.874ZM389.419 203.206C389.419 200.665 391.478 199.022 394.172 199.022C396.844 199.022 398.968 200.687 398.968 203.206C398.968 205.747 396.844 207.411 394.172 207.411C391.478 207.411 389.419 205.725 389.419 203.206ZM391.981 203.206C391.981 204.498 392.945 205.33 394.172 205.33C395.354 205.33 396.384 204.498 396.384 203.206C396.384 201.935 395.398 201.081 394.172 201.081C392.945 201.081 391.981 201.935 391.981 203.206ZM422.628 210.959H419.715V191.444H422.628V210.959ZM416.737 193.459C416.561 199.154 414.24 204.104 407.91 207.586L406.267 205.309C410.538 203.315 413.276 199.57 413.67 195.825H407.472V193.459H416.737ZM503.895 210.806H490.271V205.374H500.412V204.432H490.315V202.155H503.347V207.455H493.184V208.528H503.895V210.806ZM503.347 201.41H500.412V191.444H503.347V201.41ZM487.687 196.657C487.687 193.941 489.986 192.123 492.965 192.123C495.966 192.123 498.309 193.963 498.309 196.657C498.309 199.329 495.966 201.191 492.965 201.191C489.943 201.191 487.687 199.307 487.687 196.657ZM490.512 196.657C490.512 198.037 491.563 198.891 492.965 198.891C494.367 198.891 495.462 198.037 495.462 196.657C495.462 195.277 494.367 194.401 492.965 194.401C491.542 194.401 490.512 195.277 490.512 196.657ZM521.225 210.959H518.312V191.444H521.225V210.959ZM515.333 193.459C515.158 199.154 512.836 204.104 506.506 207.586L504.864 205.309C509.135 203.315 511.872 199.57 512.267 195.825H506.068V193.459H515.333ZM538.314 198.081H525.151V191.685H538.183V194.007H528.042V195.781H538.314V198.081ZM540.483 201.432H522.851V199.11H540.483V201.432ZM538.796 210.916H524.997V205.703H535.379V204.827H525.019V202.549H538.271V207.718H527.867V208.55H538.796V210.916ZM558.339 201.651H540.707V199.351H558.339V201.651ZM556.652 210.85H542.897V205.637H553.257V204.827H542.875V202.549H556.17V207.652H545.766V208.484H556.652V210.85ZM545.635 195.255C545.635 195.956 546.883 196.482 549.512 196.482C552.096 196.482 553.411 195.956 553.411 195.255C553.411 194.576 552.096 194.007 549.512 194.007C546.883 194.007 545.635 194.576 545.635 195.255ZM542.591 195.233C542.591 193.24 544.912 191.86 549.512 191.86C554.111 191.86 556.455 193.24 556.455 195.233C556.455 197.226 554.111 198.584 549.512 198.584C544.912 198.584 542.591 197.226 542.591 195.233ZM580.856 208.528H563.221V206.25H570.602V202.461H565.149V192.89H578.885V202.461H573.472V206.25H580.856V208.528ZM575.991 200.161V195.189H568.04V200.161H575.991ZM596.407 191.444V198.803H599.127V201.169H596.407V210.959H593.519V191.444H596.407ZM581.144 199.745C581.144 195.649 583.092 192.693 586.291 192.693C589.507 192.693 591.438 195.649 591.438 199.745C591.438 203.753 589.507 206.732 586.291 206.732C583.092 206.732 581.144 203.775 581.144 199.745ZM588.701 199.745C588.701 196.766 587.692 195.255 586.291 195.255C584.954 195.255 583.945 196.766 583.945 199.745C583.945 202.68 584.954 204.213 586.291 204.213C587.692 204.213 588.701 202.68 588.701 199.745ZM621.226 208.55H603.594V206.25H610.972V202.79H605.629V192.693H608.523V195.606H616.252V192.693H619.163V202.79H613.843V206.25H621.226V208.55ZM616.252 200.512V197.818H608.523V200.512H616.252ZM637.676 210.959H634.766V191.444H637.676V210.959ZM631.786 193.459C631.613 199.154 629.29 204.104 622.961 207.586L621.318 205.309C625.589 203.315 628.327 199.57 628.719 195.825H622.523V193.459H631.786Z" fill="#614AD3" fill-opacity="0.2"/>
<path d="M716.019 208.835V206.031H718.976V208.835H716.019Z" fill="white" fill-opacity="0.35"/>
<path d="M436.535 209.886H433.622V202.483C431.848 202.527 430.205 202.549 429.11 202.549L428.738 200.205C431.344 200.205 434.104 200.14 436.513 200.03C436.776 198.541 436.907 197.095 436.907 195.036H430.424V192.802H439.799C439.799 195.672 439.645 198.059 439.361 199.855C440.237 199.767 441.025 199.724 441.617 199.636C441.704 200.381 441.748 201.103 441.814 201.826C440.193 202.067 438.353 202.22 436.535 202.352V209.886ZM445.537 191.444V210.96H442.646V191.444H445.537ZM447.185 197.183V194.971H457.501V197.183H454.106C454.522 198.913 456.253 199.767 457.939 200.162L456.581 202.308C455.004 201.958 453.23 200.797 452.551 199.417C451.938 200.95 449.923 202.571 447.952 203.053L446.55 200.841C448.674 200.381 450.514 199.176 450.93 197.183H447.185ZM464.751 198.059H462.101V201.257H459.21V191.444H462.101V195.693H464.751V198.059ZM462.714 209.032C462.714 210.456 461.028 211.288 458.969 211.288C456.932 211.288 455.267 210.456 455.267 209.032C455.267 207.609 456.932 206.711 458.969 206.711C461.028 206.711 462.714 207.609 462.714 209.032ZM454.632 210.062C453.143 210.39 450.492 210.719 448.346 210.587V203.863H451.018V208.331C451.916 208.331 453.493 208.069 454.391 207.828L454.632 210.062ZM463.656 206.404H454.172V204.542H463.656V206.404ZM449.463 194.116V192.036H455.267V194.116H449.463ZM461.509 203.885H456.91V202.089H461.509V203.885ZM460.086 209.01C460.086 208.616 459.648 208.397 458.969 208.397C458.334 208.397 457.874 208.616 457.874 209.01C457.874 209.383 458.334 209.624 458.969 209.624C459.648 209.624 460.086 209.383 460.086 209.01ZM482.257 208.441H464.625V206.163H470.823V199.614H473.736V206.163H482.257V208.441ZM480.417 193.175C480.526 196.876 480.11 201.344 479.497 204.06C478.577 203.951 477.657 203.885 476.759 203.776C477.219 201.958 477.547 198.804 477.547 197.227C477.547 196.679 477.526 196.022 477.526 195.474H466.552V193.175H480.417ZM657.216 198.847H654.784V196.504H657.216V191.444H660.173V205.594H657.216V198.847ZM660.565 210.478H647.008V204.257H649.896V208.222H660.565V210.478ZM653.798 202.505H644.685V192.561H647.596V195.562H650.881V192.561H653.798V202.505ZM650.881 200.227V197.774H647.596V200.227H650.881ZM678.047 210.96H675.136V201.322H671.672V198.891H675.136V191.444H678.047V210.96ZM671.827 193.459C671.654 199.154 669.332 204.082 663.003 207.565L661.36 205.287C665.631 203.294 668.369 199.57 668.761 195.825H662.565V193.459H671.827ZM695.621 203.425H689.926V206.273H697.304V208.55H679.672V206.273H687.056V203.425H681.885V196.767H692.226V194.883H681.862V192.561H695.113V199.088H684.779V201.125H695.621V203.425ZM709.051 196.482C709.051 198.826 706.924 200.556 703.794 200.556C700.641 200.556 698.56 198.826 698.56 196.482C698.56 194.073 700.641 192.255 703.794 192.255C706.993 192.255 709.051 194.073 709.051 196.482ZM707.431 206.667V204.52H711.264V191.444H714.198V210.96H711.264V206.667H707.431ZM705.154 210.39H702.238V203.776C700.445 203.841 698.802 203.863 697.615 203.863L697.269 201.542C699.586 201.542 701.886 201.476 703.731 201.41C706.249 201.279 708.549 201.147 709.904 200.95L710.082 203.162C708.393 203.381 706.86 203.535 705.154 203.622V210.39ZM706.094 196.46C706.094 195.431 705.195 194.62 703.794 194.62C702.457 194.62 701.517 195.431 701.517 196.46C701.517 197.446 702.434 198.256 703.794 198.256C705.218 198.256 706.094 197.446 706.094 196.46Z" fill="#614AD3" fill-opacity="0.8"/>
<path d="M259.848 177.49V167.209H263.654C266.157 167.209 267.386 168.273 267.386 170.341C267.386 172.529 266.007 173.758 263.744 173.758H261.976V177.49H259.848ZM261.976 172.199H263.369C264.673 172.199 265.168 171.615 265.168 170.431C265.168 169.142 264.643 168.813 263.399 168.813H261.976V172.199ZM269.649 177.624C268.225 177.624 267.221 176.92 267.221 175.421C267.221 173.953 268.24 173.293 269.813 173.069L271.522 172.859V172.334C271.522 171.375 271.102 171.15 269.828 171.15C269.064 171.15 268.375 171.24 267.865 171.39V170.011C268.63 169.742 269.499 169.592 270.578 169.592C272.406 169.592 273.47 170.251 273.47 171.93V177.49H271.867L271.717 176.86H271.627C271.282 177.31 270.623 177.624 269.649 177.624ZM270.263 176.291C270.758 176.291 271.282 176.111 271.522 175.871V174.073L270.248 174.208C269.514 174.283 269.154 174.552 269.154 175.272C269.154 175.991 269.619 176.291 270.263 176.291ZM274.474 177.49V169.727H276.452V177.49H274.474ZM274.459 168.558V166.879H276.467V168.558H274.459ZM277.47 177.49V169.727H279.358V170.416H279.433C280.092 169.922 281.006 169.577 281.965 169.577C283.449 169.577 284.228 170.191 284.228 171.735V177.49H282.25V172.199C282.25 171.465 281.98 171.165 281.021 171.165C280.482 171.165 279.867 171.375 279.433 171.555V177.49H277.47ZM288.532 177.49V167.209H292.339C294.841 167.209 296.07 168.273 296.07 170.341C296.07 172.529 294.692 173.758 292.429 173.758H290.66V177.49H288.532ZM290.66 172.199H292.054C293.358 172.199 293.852 171.615 293.852 170.431C293.852 169.142 293.328 168.813 292.084 168.813H290.66V172.199ZM299.901 177.624C297.474 177.624 296.155 176.201 296.155 173.743V173.533C296.155 171.001 297.714 169.577 299.916 169.577C302.314 169.577 303.663 170.971 303.663 173.473V173.683C303.663 176.231 302.104 177.624 299.901 177.624ZM299.931 176.186C301.01 176.186 301.64 175.466 301.64 173.833V173.473C301.64 171.51 300.876 171.031 299.886 171.031C298.807 171.031 298.178 171.75 298.178 173.413V173.743C298.178 175.676 298.942 176.186 299.931 176.186ZM304.314 177.49V169.727H306.292V177.49H304.314ZM304.299 168.558V166.879H306.307V168.558H304.299ZM307.31 177.49V169.727H309.199V170.416H309.274C309.933 169.922 310.847 169.577 311.806 169.577C313.29 169.577 314.069 170.191 314.069 171.735V177.49H312.091V172.199C312.091 171.465 311.821 171.165 310.862 171.165C310.323 171.165 309.708 171.375 309.274 171.555V177.49H307.31ZM317.748 177.579C316.339 177.579 315.47 177.055 315.47 175.511V171.18H314.436V169.727H315.47V167.898H317.403V169.727H319.186V171.18H317.403V175.197C317.403 175.856 317.688 176.081 318.422 176.081C318.707 176.081 319.036 176.036 319.261 175.961V177.265C318.976 177.415 318.512 177.579 317.748 177.579Z" fill="#E4572E"/>
<path d="M258.948 295.65L262.605 285.369H264.823L268.435 295.65H266.247L265.393 293.192H261.736L260.897 295.65H258.948ZM263.504 287.782L262.215 291.678H264.898L263.564 287.782H263.504ZM268.047 292.278V290.689H272.318V292.278H268.047ZM273.112 295.65V284.695H275.075V288.531H275.165C275.764 288.067 276.648 287.737 277.607 287.737C279.091 287.737 279.87 288.351 279.87 289.895V295.65H277.892V290.36C277.892 289.625 277.622 289.326 276.663 289.326C276.124 289.326 275.509 289.535 275.075 289.715V295.65H273.112ZM282.799 295.785C281.376 295.785 280.372 295.08 280.372 293.582C280.372 292.113 281.391 291.454 282.964 291.229L284.673 291.019V290.494C284.673 289.535 284.253 289.311 282.979 289.311C282.215 289.311 281.526 289.4 281.016 289.55V288.172C281.78 287.902 282.65 287.752 283.729 287.752C285.557 287.752 286.621 288.411 286.621 290.09V295.65H285.017L284.868 295.02H284.778C284.433 295.47 283.774 295.785 282.799 295.785ZM283.414 294.451C283.908 294.451 284.433 294.271 284.673 294.031V292.233L283.399 292.368C282.665 292.443 282.305 292.712 282.305 293.432C282.305 294.151 282.769 294.451 283.414 294.451ZM290.947 295.65V285.369H294.753C297.256 285.369 298.485 286.433 298.485 288.501C298.485 290.689 297.106 291.918 294.843 291.918H293.075V295.65H290.947ZM293.075 290.36H294.468C295.772 290.36 296.267 289.775 296.267 288.591C296.267 287.302 295.742 286.973 294.498 286.973H293.075V290.36ZM302.316 295.785C299.888 295.785 298.569 294.361 298.569 291.903V291.693C298.569 289.161 300.128 287.737 302.331 287.737C304.729 287.737 306.077 289.131 306.077 291.633V291.843C306.077 294.391 304.519 295.785 302.316 295.785ZM302.346 294.346C303.425 294.346 304.054 293.627 304.054 291.993V291.633C304.054 289.67 303.29 289.191 302.301 289.191C301.222 289.191 300.593 289.91 300.593 291.573V291.903C300.593 293.836 301.357 294.346 302.346 294.346ZM306.729 295.65V287.887H308.707V295.65H306.729ZM306.714 286.718V285.04H308.722V286.718H306.714ZM309.725 295.65V287.887H311.613V288.576H311.688C312.347 288.082 313.262 287.737 314.221 287.737C315.704 287.737 316.484 288.351 316.484 289.895V295.65H314.505V290.36C314.505 289.625 314.236 289.326 313.277 289.326C312.737 289.326 312.123 289.535 311.688 289.715V295.65H309.725ZM320.162 295.74C318.753 295.74 317.884 295.215 317.884 293.672V289.341H316.85V287.887H317.884V286.059H319.817V287.887H321.601V289.341H319.817V293.357C319.817 294.016 320.102 294.241 320.837 294.241C321.121 294.241 321.451 294.196 321.676 294.121V295.425C321.391 295.575 320.926 295.74 320.162 295.74Z" fill="#E4572E"/>
<path d="M259.848 413.809V403.529H263.654C266.157 403.529 267.386 404.593 267.386 406.661C267.386 408.849 266.007 410.078 263.744 410.078H261.976V413.809H259.848ZM261.976 408.519H263.369C264.673 408.519 265.168 407.935 265.168 406.751C265.168 405.462 264.643 405.132 263.399 405.132H261.976V408.519ZM267.875 413.809V406.047H269.763V406.961H269.838C270.243 406.376 271.022 405.972 271.846 405.972C272.056 405.972 272.236 405.987 272.296 406.032V407.77C272.131 407.74 271.876 407.71 271.682 407.71C270.992 407.71 270.318 407.905 269.838 408.19V413.809H267.875ZM276.058 413.944C273.63 413.944 272.311 412.521 272.311 410.063V409.853C272.311 407.32 273.87 405.897 276.073 405.897C278.471 405.897 279.82 407.29 279.82 409.793V410.003C279.82 412.551 278.261 413.944 276.058 413.944ZM276.088 412.506C277.167 412.506 277.796 411.786 277.796 410.153V409.793C277.796 407.83 277.032 407.35 276.043 407.35C274.964 407.35 274.335 408.07 274.335 409.733V410.063C274.335 411.996 275.099 412.506 276.088 412.506ZM279.991 416.207C279.377 416.207 278.972 416.102 278.673 415.952V414.679C278.882 414.724 279.137 414.753 279.377 414.753C280.081 414.753 280.471 414.439 280.471 413.704V406.047H282.449V413.869C282.449 415.233 281.745 416.207 279.991 416.207ZM280.456 404.878V403.199H282.464V404.878H280.456ZM286.974 413.944C284.366 413.944 283.062 412.506 283.062 410.018V409.823C283.062 407.26 284.606 405.912 286.704 405.912C289.057 405.912 290.046 407.245 290.046 409.733V410.452H285.07C285.205 411.951 286.015 412.446 287.423 412.446C288.382 412.446 289.117 412.221 289.776 411.936V413.225C289.237 413.585 288.322 413.944 286.974 413.944ZM286.659 407.305C285.955 407.305 285.175 407.71 285.07 409.179H288.113C288.113 407.815 287.618 407.305 286.659 407.305ZM293.992 413.944C291.624 413.944 290.245 412.64 290.245 410.093V409.868C290.245 407.2 291.834 405.897 294.127 405.897C295.131 405.897 295.745 406.077 296.24 406.361V407.845C295.64 407.605 295.206 407.455 294.306 407.455C293.048 407.455 292.283 408.175 292.283 409.688V409.988C292.283 411.696 292.943 412.401 294.366 412.401C295.281 412.401 295.925 412.131 296.315 411.936V413.36C295.82 413.659 295.101 413.944 293.992 413.944ZM299.726 413.899C298.318 413.899 297.448 413.375 297.448 411.831V407.5H296.414V406.047H297.448V404.218H299.382V406.047H301.165V407.5H299.382V411.516C299.382 412.176 299.666 412.401 300.401 412.401C300.685 412.401 301.015 412.356 301.24 412.281V413.585C300.955 413.734 300.491 413.899 299.726 413.899ZM309.704 413.974C306.617 413.974 304.669 412.521 304.669 408.879V408.549C304.669 404.638 307.082 403.364 309.779 403.364C311.143 403.364 312.087 403.649 312.686 403.948V405.597C312.072 405.372 311.278 405.057 309.959 405.057C307.606 405.057 306.902 406.541 306.902 408.414V408.879C306.902 410.962 307.411 412.371 309.659 412.371C310.214 412.371 310.768 412.251 311.098 412.146V409.988H309.315V408.489H313.151V413.345C312.372 413.644 311.098 413.974 309.704 413.974ZM317.367 413.944C314.939 413.944 313.62 412.521 313.62 410.063V409.853C313.62 407.32 315.179 405.897 317.382 405.897C319.779 405.897 321.128 407.29 321.128 409.793V410.003C321.128 412.551 319.57 413.944 317.367 413.944ZM317.397 412.506C318.476 412.506 319.105 411.786 319.105 410.153V409.793C319.105 407.83 318.341 407.35 317.352 407.35C316.273 407.35 315.643 408.07 315.643 409.733V410.063C315.643 411.996 316.408 412.506 317.397 412.506ZM323.728 413.944C322.304 413.944 321.3 413.24 321.3 411.741C321.3 410.273 322.319 409.613 323.893 409.388L325.601 409.179V408.654C325.601 407.695 325.181 407.47 323.908 407.47C323.143 407.47 322.454 407.56 321.944 407.71V406.331C322.709 406.062 323.578 405.912 324.657 405.912C326.485 405.912 327.549 406.571 327.549 408.25V413.809H325.946L325.796 413.18H325.706C325.361 413.63 324.702 413.944 323.728 413.944ZM324.342 412.61C324.837 412.61 325.361 412.431 325.601 412.191V410.393L324.327 410.527C323.593 410.602 323.233 410.872 323.233 411.591C323.233 412.311 323.698 412.61 324.342 412.61ZM328.552 413.809V402.854H330.53V413.809H328.552Z" fill="#E4572E"/>
<path d="M69.7039 60.3271H49.2859V57.1212H53.1765L52.3361 50.9584L56.4135 50.5849L56.9426 57.1212H62.2027L62.8252 50.6161L66.9026 51.0518L65.8755 57.1212H69.7039V60.3271ZM72.1005 68.0461H47.0449V64.8091H72.1005V68.0461ZM69.7661 49.2466H49.2547V45.9784H69.7661V49.2466ZM96.6345 60.9184H88.542V64.9647H99.0311V68.2017H73.9755V64.9647H84.4646V60.9184H77.1191V51.4564H91.8101V48.7797H77.088V45.4804H95.9186V54.7557H81.2276V57.6503H96.6345V60.9184ZM113.542 48.9042H109.589V49.1843C109.621 52.8259 111.301 55.3471 114.507 56.5921L112.484 59.7046C110.959 59.1754 108.376 56.9344 107.66 55.2226C107.068 56.9344 104.858 59.3311 102.493 60.1714L100.439 57.1834C104.36 55.3471 105.605 52.8259 105.605 49.2154V48.9042H101.435V45.6672H113.542V48.9042ZM105.045 61.6032H124.561V71.6566H120.421V64.8713H105.045V61.6032ZM119.083 60.3271H115.316V53.8219H112.484V50.5849H115.316V44.3599H119.083V60.3271ZM124.561 60.5138H120.701V43.8931H124.561V60.5138ZM149.095 55.2537H135.151V58.0861H150.153V61.3231H131.042V46.1652H149.81V49.4022H135.151V52.0478H149.095V55.2537ZM152.892 64.9647V68.1706H127.836V64.9647H152.892ZM184.668 54.4444H177.509V56.8099H187.998V60.1092H162.943V56.8099H173.432V54.4444H166.273V44.6089H184.668V54.4444ZM165.931 62.0701H184.761V71.5943H180.653V65.3071H165.931V62.0701ZM180.466 51.2697V47.7214H170.413V51.2697H180.466ZM214.929 68.2017H189.873V64.9647H195.756V60.1092H199.865V64.9647H204.782V60.1092H208.953V64.9647H214.929V68.2017ZM212.532 58.9264H192.114V55.7206H195.943L195.165 50.8028L199.242 50.3982L199.678 55.7206H205.156L205.654 50.4293L209.731 50.8651L208.797 55.7206H212.532V58.9264ZM212.595 48.9664H192.083V45.6983H212.595V48.9664Z" fill="#E4572E"/>
<path d="M51.6617 89.9568C48.9988 89.9568 47.4944 88.6426 47.4944 85.8068V78.1466H48.4109V85.7549C48.4109 88.3141 49.5867 89.1787 51.679 89.1787C53.7886 89.1787 54.8953 88.3314 54.8953 85.7376V78.1466H55.7426V85.7895C55.7426 88.6945 54.3419 89.9568 51.6617 89.9568ZM57.6573 89.7666L61.5134 83.801L57.9167 78.1639H58.9369L62.1186 83.092H62.1359L65.1965 78.1639H66.1821L62.6546 83.8182L66.4415 89.7666H65.3867L62.0321 84.4926H62.0148L58.6257 89.7666H57.6573ZM72.7184 78.9593V78.1466H80.638V78.9593H77.1277V80.1524C77.1277 82.1582 79.0125 84.0257 80.88 84.6482L80.3613 85.4264C78.7359 84.752 77.1969 83.2649 76.6263 81.9162C76.2632 83.2822 74.413 85.0114 72.7011 85.8241L72.1823 85.1151C74.0844 84.3543 76.2113 82.1928 76.2113 80.1351V78.9593H72.7184ZM84.4594 87.657H83.5257V81.7605H80.465V80.9305H83.5257V76.5903H84.4594V87.657ZM84.788 91.1499H74.8453V86.5676H75.7617V90.3199H84.788V91.1499ZM95.997 83.5935L96.0835 84.4235C94.3543 84.6482 92.8326 84.8212 90.6885 84.8903C89.7893 84.9076 88.8037 84.9076 87.7489 84.9076V80.6885H93.3687V78.406H87.7489V77.5932H94.3024V81.5012H88.6999V84.0949H89.3743C91.1035 84.0949 93.801 83.9739 95.997 83.5935ZM101.029 82.3139V83.1266H98.6426V85.8241H97.7089V76.5903H98.6426V79.236H101.029V80.0487H98.6426V82.3139H101.029ZM88.8037 86.6541H98.6599V91.686H97.7089V87.4668H88.8037V86.6541ZM120.291 89.7493H106.648V88.9366H112.976V84.7174H108.48V77.9564H118.527V78.7691H109.414V83.9047H118.579V84.7174H113.927V88.9366H120.291V89.7493ZM134.059 91.513H123.373V88.193H132.485V86.8097H123.321V85.997H127.938V84.5445H121.609V83.7318H135.252V84.5445H128.889V85.997H133.419V89.0057H124.324V90.7003H134.059V91.513ZM134.422 82.1755L133.99 82.9537C131.828 82.6251 129.183 81.7778 128.422 80.3599C127.713 81.847 125.24 82.6424 122.958 82.9882L122.508 82.2101C124.894 81.9162 127.384 81.1207 127.868 79.5991H123.131V78.7864H133.713V79.5991H128.992C129.528 81.1207 132.26 81.8989 134.422 82.1755ZM130.808 77.6451H126.07V76.8324H130.808V77.6451Z" fill="#9E94D3"/>
<path d="M727.581 48.7806L724.613 53.5304V57.3905H721.944V53.4519L718.97 48.7806C718.446 47.9694 718.907 47.1712 719.495 46.9226C720.319 46.5824 721.08 46.9618 721.535 47.7077L723.368 50.7434L725.132 47.7077C725.512 47.0665 726.1 46.6086 726.982 46.8833C727.622 47.0796 728.129 47.8909 727.581 48.7806ZM731.536 49.5265V50.9265H735.109C735.864 50.9265 736.164 51.5546 736.164 52.078C736.164 52.6014 735.876 53.1902 735.109 53.1902H731.536V54.7212C731.536 55.0352 731.61 55.1006 731.916 55.1006H735.357C736.129 55.1006 736.418 55.6895 736.418 56.2259C736.418 56.7624 736.112 57.3905 735.357 57.3905H730.896C729.322 57.3905 728.85 56.8278 728.85 55.3231V48.9246C728.85 47.4198 729.322 46.8572 730.896 46.8572H735.224C735.985 46.8572 736.285 47.4853 736.285 48.0217C736.285 48.5582 735.997 49.147 735.224 49.147H731.916C731.61 49.147 731.536 49.2125 731.536 49.5265ZM737.622 53.6482V50.7826C737.622 47.7731 740.043 46.7918 742.003 46.7918C743.928 46.7918 746.389 47.7731 746.389 50.7826V53.6482C746.389 56.6577 743.928 57.6391 742.003 57.6391C740.078 57.6391 737.622 56.6577 737.622 53.6482ZM743.72 53.7268V50.7041C743.72 49.5527 742.827 49.0292 742.003 49.0292C741.178 49.0292 740.291 49.5527 740.291 50.7041V53.7268C740.291 54.7735 741.259 55.4016 742.003 55.4016C742.752 55.4016 743.72 54.7735 743.72 53.7268ZM756.395 53.1902V53.8968C756.395 56.5531 754.522 57.6129 752.286 57.6129C750.026 57.6129 747.749 56.5007 747.749 53.6351V50.7826C747.749 47.8909 750.026 46.8048 752.326 46.8048C753.53 46.8048 754.591 47.0796 755.098 47.446C755.634 47.8254 755.899 48.4535 755.582 49.0031C755.323 49.4611 754.839 49.6442 754.395 49.5657C754.095 49.5134 753.871 49.3695 753.675 49.291C753.358 49.1732 752.902 49.1208 752.326 49.1208C751.409 49.1208 750.418 49.6966 750.418 50.9004V53.5173C750.418 54.7212 751.346 55.2969 752.286 55.2969C753.179 55.2969 754.003 54.8651 754.003 53.9361V53.7791C754.003 53.5173 753.951 53.4781 753.698 53.4781H753.271C752.51 53.4781 752.222 52.9024 752.222 52.379C752.222 51.8556 752.522 51.2406 753.271 51.2406H754.458C756.003 51.2406 756.395 51.7247 756.395 53.1902ZM757.657 57.3905V48.1133C757.657 47.2104 758.286 46.8048 759.018 46.8048C759.75 46.8048 760.378 47.2104 760.378 48.1133V57.3905H757.657ZM770.217 48.7806L767.243 53.5304V57.3905H764.574V53.4519L761.606 48.7806C761.081 47.9694 761.537 47.1712 762.13 46.9226C762.954 46.5824 763.71 46.9618 764.171 47.7077L766.004 50.7434L767.767 47.7077C768.148 47.0665 768.736 46.6086 769.612 46.8833C770.252 47.0796 770.765 47.8909 770.217 48.7806ZM769.998 57.3905L773.364 47.8909C773.623 47.1581 774.344 46.8048 775.047 46.8048C775.716 46.8048 776.413 47.1843 776.661 47.8909L780.073 57.3905H777.197L776.684 55.768H773.324L772.828 57.3905H769.998ZM775.012 50.2985L774.004 53.5566H776.004L775.012 50.2985ZM783.825 54.3286H781.157V47.4067C781.157 46.5562 781.797 46.1113 782.488 46.1113C783.168 46.1113 783.825 46.5693 783.825 47.4067V54.3286ZM781.088 56.2652C781.088 55.454 781.612 54.9436 782.488 54.9436C783.364 54.9436 783.889 55.467 783.889 56.2652C783.889 57.0634 783.364 57.5868 782.488 57.5868C781.612 57.5868 781.088 57.0764 781.088 56.2652Z" fill="#614AD3"/>
</g>
</g>
<defs>
<clipPath id="clip0_29_922">
<rect width="830" height="547.569" fill="white"/>
</clipPath>
</defs>
</svg>
