<svg
  xmlns="http://www.w3.org/2000/svg"
  width="51"
  height="70"
  viewBox="0 0 51 70"
  fill="none"
>
  <path
    d="M25.5001 0.195312C11.4375 0.195312 0 11.2464 0 24.8219C0 37.5739 19.087 51.3718 24.6054 68.4086C24.724 68.7765 25.08 69.0272 25.4791 69.0246C25.8796 69.0192 26.2299 68.7658 26.343 68.3951C31.6967 50.9392 50.9987 37.5887 51 24.8192C50.9987 11.2464 39.5598 0.195312 25.5001 0.195312ZM25.5001 43.5029C14.4744 43.5029 5.50311 34.8377 5.50311 24.191C5.50311 13.543 14.4744 4.87903 25.5001 4.87903C36.523 4.87903 45.4956 13.543 45.4956 24.191C45.4956 34.8377 36.5229 43.5029 25.5001 43.5029Z"
    fill="#614AD3"
  />
  <circle cx="25.5" cy="24.6953" r="20.5" fill="white" />
</svg>
