<svg width="238" height="238" viewBox="0 0 238 238" fill="none" xmlns="http://www.w3.org/2000/svg">
<rect x="1" y="1" width="236" height="236" rx="13" fill="white"/>
<rect x="1" y="1" width="236" height="236" rx="13" stroke="#614AD3" stroke-width="2"/>
<path d="M82.62 112.96L78.08 120.22V126.12H74V120.1L69.46 112.96C68.66 111.72 69.36 110.5 70.26 110.12C71.52 109.6 72.68 110.18 73.38 111.32L76.18 115.96L78.88 111.32C79.46 110.34 80.36 109.64 81.7 110.06C82.68 110.36 83.46 111.6 82.62 112.96ZM88.662 114.1V116.24H94.122C95.282 116.24 95.742 117.2 95.742 118C95.742 118.8 95.302 119.7 94.122 119.7H88.662V122.04C88.662 122.52 88.782 122.62 89.242 122.62H94.502C95.682 122.62 96.122 123.52 96.122 124.34C96.122 125.16 95.662 126.12 94.502 126.12H87.682C85.282 126.12 84.562 125.26 84.562 122.96V113.18C84.562 110.88 85.282 110.02 87.682 110.02H94.302C95.462 110.02 95.922 110.98 95.922 111.8C95.922 112.62 95.482 113.52 94.302 113.52H89.242C88.782 113.52 88.662 113.62 88.662 114.1ZM97.9642 120.4V116.02C97.9642 111.42 101.664 109.92 104.664 109.92C107.604 109.92 111.364 111.42 111.364 116.02V120.4C111.364 125 107.604 126.5 104.664 126.5C101.724 126.5 97.9642 125 97.9642 120.4ZM107.284 120.52V115.9C107.284 114.14 105.924 113.34 104.664 113.34C103.404 113.34 102.044 114.14 102.044 115.9V120.52C102.044 122.12 103.524 123.08 104.664 123.08C105.804 123.08 107.284 122.12 107.284 120.52ZM126.662 119.7V120.78C126.662 124.84 123.802 126.46 120.382 126.46C116.922 126.46 113.442 124.76 113.442 120.38V116.02C113.442 111.6 116.922 109.94 120.442 109.94C122.282 109.94 123.902 110.36 124.682 110.92C125.502 111.5 125.902 112.46 125.422 113.3C125.022 114 124.282 114.28 123.602 114.16C123.142 114.08 122.802 113.86 122.502 113.74C122.022 113.56 121.322 113.48 120.442 113.48C119.042 113.48 117.522 114.36 117.522 116.2V120.2C117.522 122.04 118.942 122.92 120.382 122.92C121.742 122.92 123.002 122.26 123.002 120.84V120.6C123.002 120.2 122.922 120.14 122.542 120.14H121.882C120.722 120.14 120.282 119.26 120.282 118.46C120.282 117.66 120.742 116.72 121.882 116.72H123.702C126.062 116.72 126.662 117.46 126.662 119.7ZM128.593 126.12V111.94C128.593 110.56 129.553 109.94 130.673 109.94C131.793 109.94 132.753 110.56 132.753 111.94V126.12H128.593ZM147.784 112.96L143.244 120.22V126.12H139.164V120.1L134.624 112.96C133.824 111.72 134.524 110.5 135.424 110.12C136.684 109.6 137.844 110.18 138.544 111.32L141.344 115.96L144.044 111.32C144.624 110.34 145.524 109.64 146.864 110.06C147.844 110.36 148.624 111.6 147.784 112.96ZM147.455 126.12L152.595 111.6C152.995 110.48 154.095 109.94 155.175 109.94C156.195 109.94 157.255 110.52 157.635 111.6L162.855 126.12H158.455L157.675 123.64H152.535L151.775 126.12H147.455ZM155.115 115.28L153.575 120.26H156.635L155.115 115.28ZM168.585 121.44H164.505V110.86C164.505 109.56 165.485 108.88 166.545 108.88C167.585 108.88 168.585 109.58 168.585 110.86V121.44ZM164.405 124.4C164.405 123.16 165.205 122.38 166.545 122.38C167.885 122.38 168.685 123.18 168.685 124.4C168.685 125.62 167.885 126.42 166.545 126.42C165.205 126.42 164.405 125.64 164.405 124.4Z" fill="#614AD3"/>
</svg>
